{
.appVersion = "1075";
copyright = "Copyright 2018 Google Inc. All Rights Reserved.";
customParameters = (
{
name = glyphOrder;
value = (
.notdef,
NULL,
CR,
space,
uni0964,
uni0965,
uni11680,
uni11681,
uni11682,
uni11683,
uni11684,
uni11685,
uni11686,
uni11687,
uni11688,
uni11689,
uni1168A,
uni1168B,
uni1168C,
uni1168D,
uni1168E,
uni1168F,
uni11690,
uni11691,
uni11692,
uni11693,
uni11694,
uni11695,
uni11696,
uni11697,
uni11698,
uni11699,
uni1169A,
uni1169B,
uni1169C,
uni1169D,
uni1169E,
uni1169F,
uni116A0,
uni116A1,
uni116A2,
uni116A3,
uni116A4,
uni116A5,
uni116A6,
uni116A7,
uni116A8,
uni116A9,
uni116AA,
uni116AB,
uni116AC,
uni116AD,
uni116AE,
uni116AF,
uni116B0,
uni116B1,
uni116B2,
uni116B3,
uni116B4,
uni116B5,
uni116B6,
uni116B7,
uni116C0,
uni116C1,
uni116C2,
uni116C3,
uni116C4,
uni116C5,
uni116C6,
uni116C7,
uni116C8,
uni116C9,
Ya.blw,
Ra.blw,
Ha.pst,
uni25CC,
nbspace,
zerowidthjoiner,
zerowidthnonjoiner,
uniA830,
uniA831,
uniA832,
uniA833,
uniA834,
uniA835,
uniA836,
uniA837,
uniA838,
uniA839,
I_anusvara,
NullMark,
Tra,
uni116AE.alt,
I_anusvara.alt,
uni116B6.ns
);
},
{
name = description;
value = "Designed by Monotype design team.";
},
{
name = license;
value = "This Font Software is licensed under the SIL Open Font License, Version 1.1. This Font Software is distributed on an \"AS IS\" BASIS, WITHOUT WARRANTIES OR CONDITIONS OF ANY KIND, either express or implied. See the SIL Open Font License for the specific language, permissions and limitations governing your use of this Font Software.";
},
{
name = licenseURL;
value = "http://scripts.sil.org/OFL";
},
{
name = vendorID;
value = GOOG;
},
{
name = unicodeRanges;
value = (
0,
1,
15,
31,
45,
57
);
},
{
name = trademark;
value = "Noto is a trademark of Google Inc.";
},
{
name = "Has WWS Names";
value = 1;
},
{
name = versionString;
value = "Version 2.000";
},
{
name = fsType;
value = (
);
},
{
name = codePageRanges;
value = (
"1252"
);
}
);
date = "2016-09-05 18:28:28 +0000";
designer = "Monotype Design Team";

glyphs = (
{
glyphname = .notdef;
lastChange = "2018-04-03 16:18:36 +0000";
layers = (
{
layerId = UUID0;
paths = (
{
closed = 1;
nodes = (
"505 0 LINE",
"505 714 LINE",
"94 714 LINE",
"94 0 LINE"
);
},
{
closed = 1;
nodes = (
"145 663 LINE",
"454 663 LINE",
"454 51 LINE",
"145 51 LINE"
);
}
);
width = 600;
}
);
},
{
glyphname = uni0964;
production = uni0964;
lastChange = "2018-04-03 16:18:36 +0000";
layers = (
{
layerId = UUID0;
paths = (
{
closed = 1;
nodes = (
"205 625 LINE",
"120 645 LINE",
"120 0 LINE",
"205 -20 LINE"
);
}
);
width = 325;
}
);
unicode = 0964;
category = Letter;
},
{
glyphname = uni0965;
production = uni0965;
lastChange = "2018-04-03 16:18:36 +0000";
layers = (
{
layerId = UUID0;
paths = (
{
closed = 1;
nodes = (
"365 625 LINE",
"280 645 LINE",
"280 0 LINE",
"365 -20 LINE"
);
},
{
closed = 1;
nodes = (
"205 625 LINE",
"120 645 LINE",
"120 0 LINE",
"205 -20 LINE"
);
}
);
width = 485;
}
);
unicode = 0965;
category = Letter;
},
{
glyphname = uni11680;
lastChange = "2018-04-03 16:18:36 +0000";
layers = (
{
layerId = UUID0;
paths = (
{
closed = 1;
nodes = (
"551 0 LINE",
"609 72 OFFCURVE",
"663 203 OFFCURVE",
"663 302 CURVE SMOOTH",
"663 413 OFFCURVE",
"592 470 OFFCURVE",
"510 470 CURVE SMOOTH",
"416 470 OFFCURVE",
"366 393 OFFCURVE",
"338 312 CURVE SMOOTH",
"308 226 OFFCURVE",
"275 137 OFFCURVE",
"212 137 CURVE SMOOTH",
"166 137 OFFCURVE",
"142 172 OFFCURVE",
"142 212 CURVE SMOOTH",
"142 260 OFFCURVE",
"167 303 OFFCURVE",
"194 346 CURVE SMOOTH",
"224 393 OFFCURVE",
"253 440 OFFCURVE",
"253 493 CURVE SMOOTH",
"253 515 OFFCURVE",
"248 536 OFFCURVE",
"242 550 CURVE",
"645 550 LINE",
"645 625 LINE",
"30 625 LINE",
"30 550 LINE",
"159 550 LINE",
"167 533 OFFCURVE",
"170 512 OFFCURVE",
"170 490 CURVE SMOOTH",
"170 452 OFFCURVE",
"148 418 OFFCURVE",
"123 381 CURVE SMOOTH",
"91 334 OFFCURVE",
"57 283 OFFCURVE",
"57 214 CURVE SMOOTH",
"57 113 OFFCURVE",
"125 54 OFFCURVE",
"207 54 CURVE SMOOTH",
"331 54 OFFCURVE",
"375 178 OFFCURVE",
"406 267 CURVE SMOOTH",
"432 341 OFFCURVE",
"461 392 OFFCURVE",
"511 392 CURVE SMOOTH",
"548 392 OFFCURVE",
"578 368 OFFCURVE",
"578 298 CURVE SMOOTH",
"578 193 OFFCURVE",
"527 91 OFFCURVE",
"454 0 CURVE"
);
}
);
width = 703;
}
);
unicode = 11680;
category = Letter;
},
{
glyphname = uni11682;
lastChange = "2018-04-03 16:18:36 +0000";
layers = (
{
layerId = UUID0;
paths = (
{
closed = 1;
nodes = (
"407 -10 OFFCURVE",
"478 82 OFFCURVE",
"478 170 CURVE SMOOTH",
"478 275 OFFCURVE",
"409 335 OFFCURVE",
"315 351 CURVE",
"299 284 LINE",
"348 272 OFFCURVE",
"393 240 OFFCURVE",
"393 180 CURVE SMOOTH",
"393 112 OFFCURVE",
"358 65 OFFCURVE",
"281 65 CURVE SMOOTH",
"181 65 OFFCURVE",
"125 170 OFFCURVE",
"125 320 CURVE SMOOTH",
"125 596 OFFCURVE",
"262 739 OFFCURVE",
"455 754 CURVE",
"434 824 LINE",
"191 806 OFFCURVE",
"40 603 OFFCURVE",
"40 320 CURVE SMOOTH",
"40 107 OFFCURVE",
"128 -10 OFFCURVE",
"283 -10 CURVE SMOOTH"
);
},
{
closed = 1;
nodes = (
"400 429 OFFCURVE",
"430 457 OFFCURVE",
"430 494 CURVE SMOOTH",
"430 529 OFFCURVE",
"400 559 OFFCURVE",
"365 559 CURVE SMOOTH",
"329 559 OFFCURVE",
"300 529 OFFCURVE",
"300 494 CURVE SMOOTH",
"300 457 OFFCURVE",
"329 429 OFFCURVE",
"365 429 CURVE SMOOTH"
);
}
);
width = 518;
}
);
unicode = 11682;
category = Letter;
},
{
glyphname = uni11683;
lastChange = "2018-04-03 16:18:36 +0000";
layers = (
{
layerId = UUID0;
paths = (
{
closed = 1;
nodes = (
"407 -10 OFFCURVE",
"478 82 OFFCURVE",
"478 170 CURVE SMOOTH",
"478 275 OFFCURVE",
"409 335 OFFCURVE",
"315 351 CURVE",
"299 284 LINE",
"348 272 OFFCURVE",
"393 240 OFFCURVE",
"393 180 CURVE SMOOTH",
"393 112 OFFCURVE",
"358 65 OFFCURVE",
"281 65 CURVE SMOOTH",
"181 65 OFFCURVE",
"125 170 OFFCURVE",
"125 320 CURVE SMOOTH",
"125 596 OFFCURVE",
"262 739 OFFCURVE",
"455 754 CURVE",
"434 824 LINE",
"191 806 OFFCURVE",
"40 603 OFFCURVE",
"40 320 CURVE SMOOTH",
"40 107 OFFCURVE",
"128 -10 OFFCURVE",
"283 -10 CURVE SMOOTH"
);
},
{
closed = 1;
nodes = (
"400 389 OFFCURVE",
"430 417 OFFCURVE",
"430 454 CURVE SMOOTH",
"430 489 OFFCURVE",
"400 519 OFFCURVE",
"365 519 CURVE SMOOTH",
"329 519 OFFCURVE",
"300 489 OFFCURVE",
"300 454 CURVE SMOOTH",
"300 417 OFFCURVE",
"329 389 OFFCURVE",
"365 389 CURVE SMOOTH"
);
},
{
closed = 1;
nodes = (
"400 549 OFFCURVE",
"430 577 OFFCURVE",
"430 614 CURVE SMOOTH",
"430 649 OFFCURVE",
"400 679 OFFCURVE",
"365 679 CURVE SMOOTH",
"329 679 OFFCURVE",
"300 649 OFFCURVE",
"300 614 CURVE SMOOTH",
"300 577 OFFCURVE",
"329 549 OFFCURVE",
"365 549 CURVE SMOOTH"
);
}
);
width = 518;
}
);
unicode = 11683;
category = Letter;
},
{
glyphname = uni11684;
lastChange = "2018-04-03 16:18:36 +0000";
layers = (
{
layerId = UUID0;
paths = (
{
closed = 1;
nodes = (
"450 -12 OFFCURVE",
"523 66 OFFCURVE",
"523 162 CURVE SMOOTH",
"523 228 OFFCURVE",
"489 272 OFFCURVE",
"434 294 CURVE",
"485 317 OFFCURVE",
"511 360 OFFCURVE",
"511 409 CURVE SMOOTH",
"511 500 OFFCURVE",
"443 550 OFFCURVE",
"347 550 CURVE SMOOTH",
"299 550 OFFCURVE",
"255 535 OFFCURVE",
"225 516 CURVE",
"263 449 LINE",
"283 464 OFFCURVE",
"313 475 OFFCURVE",
"346 475 CURVE SMOOTH",
"389 475 OFFCURVE",
"426 451 OFFCURVE",
"426 410 CURVE SMOOTH",
"426 343 OFFCURVE",
"361 318 OFFCURVE",
"307 318 CURVE SMOOTH",
"288 318 LINE",
"288 248 LINE",
"308 248 LINE SMOOTH",
"401 248 OFFCURVE",
"438 216 OFFCURVE",
"438 162 CURVE SMOOTH",
"438 96 OFFCURVE",
"390 63 OFFCURVE",
"305 63 CURVE SMOOTH",
"211 63 OFFCURVE",
"125 138 OFFCURVE",
"125 372 CURVE SMOOTH",
"125 553 OFFCURVE",
"209 726 OFFCURVE",
"455 752 CURVE",
"436 825 LINE",
"171 805 OFFCURVE",
"40 590 OFFCURVE",
"40 376 CURVE SMOOTH",
"40 96 OFFCURVE",
"137 -12 OFFCURVE",
"305 -12 CURVE SMOOTH"
);
}
);
width = 563;
}
);
unicode = 11684;
category = Letter;
},
{
glyphname = uni11685;
lastChange = "2018-04-03 16:18:36 +0000";
layers = (
{
layerId = UUID0;
paths = (
{
closed = 1;
nodes = (
"456 -12 OFFCURVE",
"523 66 OFFCURVE",
"523 162 CURVE SMOOTH",
"523 224 OFFCURVE",
"479 285 OFFCURVE",
"409 297 CURVE",
"415 280 LINE",
"470 302 OFFCURVE",
"511 346 OFFCURVE",
"511 409 CURVE SMOOTH",
"511 500 OFFCURVE",
"432 550 OFFCURVE",
"347 550 CURVE SMOOTH",
"293 550 OFFCURVE",
"255 535 OFFCURVE",
"225 516 CURVE",
"263 449 LINE",
"283 467 OFFCURVE",
"313 475 OFFCURVE",
"336 475 CURVE SMOOTH",
"389 475 OFFCURVE",
"426 451 OFFCURVE",
"426 410 CURVE SMOOTH",
"426 340 OFFCURVE",
"363 318 OFFCURVE",
"307 318 CURVE SMOOTH",
"288 318 LINE",
"288 248 LINE",
"308 248 LINE SMOOTH",
"401 248 OFFCURVE",
"438 220 OFFCURVE",
"438 162 CURVE SMOOTH",
"438 96 OFFCURVE",
"390 63 OFFCURVE",
"320 63 CURVE SMOOTH",
"238 63 OFFCURVE",
"125 132 OFFCURVE",
"125 372 CURVE SMOOTH",
"125 452 OFFCURVE",
"138 553 OFFCURVE",
"182 628 CURVE",
"241 600 OFFCURVE",
"303 590 OFFCURVE",
"347 590 CURVE SMOOTH",
"449 590 OFFCURVE",
"509 629 OFFCURVE",
"509 698 CURVE SMOOTH",
"509 770 OFFCURVE",
"445 805 OFFCURVE",
"364 805 CURVE SMOOTH",
"281 805 OFFCURVE",
"215 773 OFFCURVE",
"164 723 CURVE",
"139 742 OFFCURVE",
"116 769 OFFCURVE",
"100 803 CURVE",
"17 803 LINE",
"40 743 OFFCURVE",
"77 699 OFFCURVE",
"118 667 CURVE",
"65 586 OFFCURVE",
"40 479 OFFCURVE",
"40 376 CURVE SMOOTH",
"40 96 OFFCURVE",
"176 -12 OFFCURVE",
"318 -12 CURVE SMOOTH"
);
},
{
closed = 1;
nodes = (
"291 662 OFFCURVE",
"241 669 OFFCURVE",
"192 698 CURVE",
"213 673 LINE",
"244 711 OFFCURVE",
"296 736 OFFCURVE",
"362 736 CURVE SMOOTH",
"396 736 OFFCURVE",
"426 724 OFFCURVE",
"426 699 CURVE SMOOTH",
"426 678 OFFCURVE",
"402 662 OFFCURVE",
"338 662 CURVE SMOOTH"
);
}
);
width = 563;
}
);
unicode = 11685;
category = Letter;
},
{
glyphname = uni11686;
lastChange = "2018-04-03 16:18:36 +0000";
layers = (
{
layerId = UUID0;
paths = (
{
closed = 1;
nodes = (
"348 -14 OFFCURVE",
"407 66 OFFCURVE",
"429 139 CURVE",
"355 164 LINE",
"338 104 OFFCURVE",
"299 61 OFFCURVE",
"236 61 CURVE SMOOTH",
"166 61 OFFCURVE",
"125 102 OFFCURVE",
"125 149 CURVE SMOOTH",
"125 216 OFFCURVE",
"174 253 OFFCURVE",
"242 295 CURVE SMOOTH",
"310 337 OFFCURVE",
"387 385 OFFCURVE",
"387 487 CURVE SMOOTH",
"387 571 OFFCURVE",
"319 637 OFFCURVE",
"217 637 CURVE SMOOTH",
"113 637 OFFCURVE",
"57 575 OFFCURVE",
"30 501 CURVE",
"103 475 LINE",
"122 526 OFFCURVE",
"160 562 OFFCURVE",
"214 562 CURVE SMOOTH",
"261 562 OFFCURVE",
"303 531 OFFCURVE",
"303 481 CURVE SMOOTH",
"303 424 OFFCURVE",
"262 397 OFFCURVE",
"189 352 CURVE SMOOTH",
"113 305 OFFCURVE",
"41 250 OFFCURVE",
"41 147 CURVE SMOOTH",
"41 62 OFFCURVE",
"105 -14 OFFCURVE",
"236 -14 CURVE SMOOTH"
);
}
);
width = 439;
}
);
unicode = 11686;
category = Letter;
},
{
glyphname = uni1168A;
lastChange = "2018-04-03 16:18:36 +0000";
layers = (
{
layerId = UUID0;
paths = (
{
closed = 1;
nodes = (
"278 -12 OFFCURVE",
"340 43 OFFCURVE",
"340 194 CURVE SMOOTH",
"340 247 OFFCURVE",
"325 304 OFFCURVE",
"300 360 CURVE",
"318 363 OFFCURVE",
"337 365 OFFCURVE",
"361 365 CURVE SMOOTH",
"383 365 OFFCURVE",
"405 363 OFFCURVE",
"422 360 CURVE",
"398 304 OFFCURVE",
"383 247 OFFCURVE",
"383 194 CURVE SMOOTH",
"383 43 OFFCURVE",
"445 -12 OFFCURVE",
"526 -12 CURVE SMOOTH",
"595 -12 OFFCURVE",
"666 40 OFFCURVE",
"666 172 CURVE SMOOTH",
"666 270 OFFCURVE",
"620 356 OFFCURVE",
"530 403 CURVE",
"567 464 OFFCURVE",
"619 525 OFFCURVE",
"683 582 CURVE",
"635 639 LINE",
"571 587 OFFCURVE",
"506 512 OFFCURVE",
"458 430 CURVE",
"431 436 OFFCURVE",
"401 440 OFFCURVE",
"359 440 CURVE SMOOTH",
"322 440 OFFCURVE",
"292 436 OFFCURVE",
"264 430 CURVE",
"216 512 OFFCURVE",
"151 587 OFFCURVE",
"88 639 CURVE",
"40 582 LINE",
"104 525 OFFCURVE",
"155 464 OFFCURVE",
"192 403 CURVE",
"103 356 OFFCURVE",
"57 270 OFFCURVE",
"57 172 CURVE SMOOTH",
"57 40 OFFCURVE",
"126 -12 OFFCURVE",
"198 -12 CURVE SMOOTH"
);
},
{
closed = 1;
nodes = (
"161 63 OFFCURVE",
"137 101 OFFCURVE",
"137 174 CURVE SMOOTH",
"137 249 OFFCURVE",
"163 305 OFFCURVE",
"227 337 CURVE",
"248 287 OFFCURVE",
"260 237 OFFCURVE",
"260 190 CURVE SMOOTH",
"260 103 OFFCURVE",
"234 63 OFFCURVE",
"196 63 CURVE SMOOTH"
);
},
{
closed = 1;
nodes = (
"489 63 OFFCURVE",
"463 103 OFFCURVE",
"463 190 CURVE SMOOTH",
"463 237 OFFCURVE",
"474 287 OFFCURVE",
"496 337 CURVE",
"560 305 OFFCURVE",
"586 249 OFFCURVE",
"586 173 CURVE SMOOTH",
"586 101 OFFCURVE",
"562 63 OFFCURVE",
"527 63 CURVE SMOOTH"
);
}
);
width = 723;
}
);
unicode = 1168A;
category = Letter;
},
{
glyphname = uni1168B;
lastChange = "2018-04-03 16:18:36 +0000";
layers = (
{
layerId = UUID0;
paths = (
{
closed = 1;
nodes = (
"534 47 LINE",
"506 62 OFFCURVE",
"494 92 OFFCURVE",
"494 127 CURVE SMOOTH",
"494 625 LINE",
"409 625 LINE",
"409 429 LINE",
"134 429 LINE",
"115 354 LINE",
"409 354 LINE",
"409 244 LINE",
"389 205 OFFCURVE",
"339 173 OFFCURVE",
"254 173 CURVE SMOOTH",
"164 173 OFFCURVE",
"115 200 OFFCURVE",
"115 255 CURVE SMOOTH",
"115 297 OFFCURVE",
"126 337 OFFCURVE",
"137 377 CURVE SMOOTH",
"148 417 OFFCURVE",
"159 457 OFFCURVE",
"159 501 CURVE SMOOTH",
"159 550 OFFCURVE",
"136 613 OFFCURVE",
"66 640 CURVE",
"36 567 LINE",
"60 551 OFFCURVE",
"74 529 OFFCURVE",
"74 492 CURVE SMOOTH",
"74 451 OFFCURVE",
"64 405 OFFCURVE",
"51 365 CURVE SMOOTH",
"37 322 OFFCURVE",
"30 289 OFFCURVE",
"30 251 CURVE SMOOTH",
"30 144 OFFCURVE",
"124 98 OFFCURVE",
"252 98 CURVE SMOOTH",
"325 98 OFFCURVE",
"384 116 OFFCURVE",
"424 152 CURVE",
"411 173 LINE",
"411 125 LINE SMOOTH",
"411 53 OFFCURVE",
"434 7 OFFCURVE",
"498 -20 CURVE"
);
}
);
width = 574;
}
);
unicode = 1168B;
category = Letter;
},
{
glyphname = uni1168C;
lastChange = "2018-04-03 16:18:36 +0000";
layers = (
{
layerId = UUID0;
paths = (
{
closed = 1;
nodes = (
"251 -12 OFFCURVE",
"313 43 OFFCURVE",
"313 194 CURVE SMOOTH",
"313 303 OFFCURVE",
"276 441 OFFCURVE",
"212 550 CURVE",
"410 550 LINE",
"410 0 LINE",
"495 0 LINE",
"495 550 LINE",
"535 550 LINE",
"535 625 LINE",
"57 625 LINE",
"57 550 LINE",
"123 550 LINE",
"167 485 OFFCURVE",
"197 415 OFFCURVE",
"214 348 CURVE",
"97 320 OFFCURVE",
"30 247 OFFCURVE",
"30 145 CURVE SMOOTH",
"30 48 OFFCURVE",
"91 -12 OFFCURVE",
"167 -12 CURVE SMOOTH"
);
},
{
closed = 1;
nodes = (
"134 63 OFFCURVE",
"110 97 OFFCURVE",
"110 149 CURVE SMOOTH",
"110 210 OFFCURVE",
"152 255 OFFCURVE",
"228 276 CURVE",
"231 247 OFFCURVE",
"233 215 OFFCURVE",
"233 190 CURVE SMOOTH",
"233 103 OFFCURVE",
"207 63 OFFCURVE",
"169 63 CURVE SMOOTH"
);
}
);
width = 575;
}
);
unicode = 1168C;
category = Letter;
},
{
glyphname = uni1168D;
lastChange = "2018-04-03 16:18:36 +0000";
layers = (
{
layerId = UUID0;
paths = (
{
closed = 1;
nodes = (
"743 52 LINE",
"715 67 OFFCURVE",
"700 92 OFFCURVE",
"700 141 CURVE SMOOTH",
"700 200 OFFCURVE",
"707 243 OFFCURVE",
"716 297 CURVE SMOOTH",
"725 352 OFFCURVE",
"732 408 OFFCURVE",
"732 462 CURVE SMOOTH",
"732 575 OFFCURVE",
"685 625 OFFCURVE",
"575 625 CURVE SMOOTH",
"457 625 LINE",
"473 486 LINE SMOOTH",
"476 456 OFFCURVE",
"478 428 OFFCURVE",
"478 406 CURVE SMOOTH",
"478 357 OFFCURVE",
"461 332 OFFCURVE",
"419 332 CURVE SMOOTH",
"374 332 OFFCURVE",
"355 360 OFFCURVE",
"355 418 CURVE SMOOTH",
"355 562 LINE",
"270 562 LINE",
"270 418 LINE SMOOTH",
"270 361 OFFCURVE",
"250 332 OFFCURVE",
"206 332 CURVE SMOOTH",
"160 332 OFFCURVE",
"143 357 OFFCURVE",
"143 403 CURVE SMOOTH",
"143 420 OFFCURVE",
"145 436 OFFCURVE",
"148 452 CURVE SMOOTH",
"151 469 OFFCURVE",
"153 486 OFFCURVE",
"153 501 CURVE SMOOTH",
"153 550 OFFCURVE",
"130 613 OFFCURVE",
"60 640 CURVE",
"30 567 LINE",
"54 551 OFFCURVE",
"68 520 OFFCURVE",
"68 493 CURVE SMOOTH",
"68 477 OFFCURVE",
"66 453 OFFCURVE",
"63 437 CURVE SMOOTH",
"61 425 OFFCURVE",
"59 410 OFFCURVE",
"59 396 CURVE SMOOTH",
"59 322 OFFCURVE",
"97 259 OFFCURVE",
"188 259 CURVE SMOOTH",
"253 259 OFFCURVE",
"286 284 OFFCURVE",
"312 320 CURVE",
"338 281 OFFCURVE",
"370 259 OFFCURVE",
"431 259 CURVE SMOOTH",
"533 259 OFFCURVE",
"563 333 OFFCURVE",
"563 396 CURVE SMOOTH",
"563 416 OFFCURVE",
"561 440 OFFCURVE",
"558 463 CURVE SMOOTH",
"547 550 LINE",
"586 550 LINE SMOOTH",
"624 550 OFFCURVE",
"647 524 OFFCURVE",
"647 456 CURVE SMOOTH",
"647 407 OFFCURVE",
"643 359 OFFCURVE",
"633 302 CURVE SMOOTH",
"623 245 OFFCURVE",
"616 199 OFFCURVE",
"616 136 CURVE SMOOTH",
"616 53 OFFCURVE",
"650 6 OFFCURVE",
"706 -20 CURVE"
);
}
);
width = 783;
}
);
unicode = 1168D;
category = Letter;
},
{
glyphname = uni1168F;
lastChange = "2018-04-03 16:18:36 +0000";
layers = (
{
layerId = UUID0;
paths = (
{
closed = 1;
nodes = (
"583 -14 OFFCURVE",
"674 32 OFFCURVE",
"674 186 CURVE SMOOTH",
"674 625 LINE",
"29 625 LINE",
"29 550 LINE",
"207 550 LINE",
"207 367 LINE SMOOTH",
"207 289 OFFCURVE",
"206 249 OFFCURVE",
"204 202 CURVE",
"224 210 LINE",
"199 222 OFFCURVE",
"175 228 OFFCURVE",
"148 228 CURVE SMOOTH",
"66 228 OFFCURVE",
"15 170 OFFCURVE",
"15 98 CURVE SMOOTH",
"15 39 OFFCURVE",
"55 -12 OFFCURVE",
"138 -12 CURVE SMOOTH",
"215 -12 OFFCURVE",
"271 38 OFFCURVE",
"273 119 CURVE",
"253 107 LINE",
"337 31 OFFCURVE",
"387 -14 OFFCURVE",
"491 -14 CURVE SMOOTH"
);
},
{
closed = 1;
nodes = (
"113 61 OFFCURVE",
"97 79 OFFCURVE",
"97 107 CURVE SMOOTH",
"97 134 OFFCURVE",
"114 155 OFFCURVE",
"146 155 CURVE SMOOTH",
"172 155 OFFCURVE",
"195 145 OFFCURVE",
"214 133 CURVE",
"201 186 LINE",
"201 98 OFFCURVE",
"180 61 OFFCURVE",
"140 61 CURVE SMOOTH"
);
},
{
closed = 1;
nodes = (
"417 61 OFFCURVE",
"377 97 OFFCURVE",
"272 191 CURVE",
"285 161 LINE",
"288 206 OFFCURVE",
"292 281 OFFCURVE",
"292 367 CURVE SMOOTH",
"292 550 LINE",
"589 550 LINE",
"589 195 LINE SMOOTH",
"589 96 OFFCURVE",
"553 61 OFFCURVE",
"489 61 CURVE SMOOTH"
);
}
);
width = 734;
}
);
unicode = 1168F;
category = Letter;
},
{
glyphname = uni11690;
lastChange = "2018-04-03 16:18:36 +0000";
layers = (
{
layerId = UUID0;
paths = (
{
closed = 1;
nodes = (
"202 133 OFFCURVE",
"236 217 OFFCURVE",
"284 257 CURVE",
"308 126 OFFCURVE",
"378 31 OFFCURVE",
"491 31 CURVE SMOOTH",
"558 31 OFFCURVE",
"613 79 OFFCURVE",
"613 153 CURVE SMOOTH",
"613 233 OFFCURVE",
"572 290 OFFCURVE",
"494 326 CURVE",
"554 367 OFFCURVE",
"588 438 OFFCURVE",
"588 505 CURVE SMOOTH",
"588 585 OFFCURVE",
"543 637 OFFCURVE",
"462 637 CURVE SMOOTH",
"356 637 OFFCURVE",
"286 526 OFFCURVE",
"277 365 CURVE",
"138 365 LINE",
"179 409 LINE SMOOTH",
"221 454 OFFCURVE",
"239 486 OFFCURVE",
"239 529 CURVE SMOOTH",
"239 590 OFFCURVE",
"185 635 OFFCURVE",
"61 635 CURVE",
"49 565 LINE",
"134 565 OFFCURVE",
"159 544 OFFCURVE",
"159 517 CURVE SMOOTH",
"159 488 OFFCURVE",
"127 452 OFFCURVE",
"92 413 CURVE SMOOTH",
"30 344 LINE",
"54 290 LINE",
"214 290 LINE",
"154 225 OFFCURVE",
"119 123 OFFCURVE",
"102 7 CURVE",
"173 -12 LINE"
);
},
{
closed = 1;
nodes = (
"472 105 OFFCURVE",
"453 113 OFFCURVE",
"436 129 CURVE SMOOTH",
"390 171 OFFCURVE",
"371 234 OFFCURVE",
"365 290 CURVE",
"373 290 LINE SMOOTH",
"487 290 OFFCURVE",
"528 221 OFFCURVE",
"528 155 CURVE SMOOTH",
"528 119 OFFCURVE",
"509 105 OFFCURVE",
"491 105 CURVE SMOOTH"
);
},
{
closed = 1;
nodes = (
"365 433 OFFCURVE",
"380 483 OFFCURVE",
"402 517 CURVE SMOOTH",
"422 548 OFFCURVE",
"440 562 OFFCURVE",
"464 562 CURVE SMOOTH",
"483 562 OFFCURVE",
"503 545 OFFCURVE",
"503 497 CURVE SMOOTH",
"503 412 OFFCURVE",
"449 365 OFFCURVE",
"375 365 CURVE SMOOTH",
"362 365 LINE"
);
}
);
width = 653;
}
);
unicode = 11690;
category = Letter;
},
{
glyphname = uni11691;
lastChange = "2018-04-03 16:18:36 +0000";
layers = (
{
layerId = UUID0;
paths = (
{
closed = 1;
nodes = (
"320 -12 OFFCURVE",
"391 80 OFFCURVE",
"391 179 CURVE SMOOTH",
"391 241 OFFCURVE",
"360 288 OFFCURVE",
"309 320 CURVE",
"322 322 OFFCURVE",
"345 323 OFFCURVE",
"360 323 CURVE SMOOTH",
"417 323 OFFCURVE",
"461 296 OFFCURVE",
"461 195 CURVE SMOOTH",
"461 0 LINE",
"546 0 LINE",
"546 201 LINE SMOOTH",
"546 350 OFFCURVE",
"465 396 OFFCURVE",
"381 396 CURVE SMOOTH",
"363 396 OFFCURVE",
"326 391 OFFCURVE",
"313 388 CURVE",
"323 378 LINE",
"353 401 OFFCURVE",
"366 439 OFFCURVE",
"366 480 CURVE SMOOTH",
"366 575 OFFCURVE",
"281 637 OFFCURVE",
"145 637 CURVE SMOOTH",
"115 637 OFFCURVE",
"69 633 OFFCURVE",
"43 630 CURVE",
"50 554 LINE",
"73 558 OFFCURVE",
"100 562 OFFCURVE",
"130 562 CURVE SMOOTH",
"216 562 OFFCURVE",
"281 537 OFFCURVE",
"281 466 CURVE SMOOTH",
"281 414 OFFCURVE",
"250 363 OFFCURVE",
"155 363 CURVE SMOOTH",
"93 363 LINE",
"93 288 LINE",
"155 288 LINE SMOOTH",
"260 288 OFFCURVE",
"306 245 OFFCURVE",
"306 180 CURVE SMOOTH",
"306 103 OFFCURVE",
"248 63 OFFCURVE",
"150 63 CURVE SMOOTH",
"116 63 OFFCURVE",
"89 64 OFFCURVE",
"52 69 CURVE",
"40 -6 LINE",
"87 -12 OFFCURVE",
"131 -12 OFFCURVE",
"145 -12 CURVE SMOOTH"
);
}
);
width = 606;
}
);
unicode = 11691;
category = Letter;
},
{
glyphname = uni11692;
lastChange = "2018-04-03 16:18:36 +0000";
layers = (
{
layerId = UUID0;
paths = (
{
closed = 1;
nodes = (
"253 38 OFFCURVE",
"494 159 OFFCURVE",
"494 305 CURVE SMOOTH",
"494 375 OFFCURVE",
"446 428 OFFCURVE",
"353 428 CURVE SMOOTH",
"300 428 OFFCURVE",
"242 410 OFFCURVE",
"191 373 CURVE",
"208 371 LINE",
"228 428 OFFCURVE",
"238 467 OFFCURVE",
"238 516 CURVE SMOOTH",
"238 577 OFFCURVE",
"206 628 OFFCURVE",
"70 635 CURVE",
"58 565 LINE",
"157 562 OFFCURVE",
"158 525 OFFCURVE",
"158 505 CURVE SMOOTH",
"158 482 OFFCURVE",
"155 458 OFFCURVE",
"146 416 CURVE SMOOTH",
"129 333 LINE",
"180 298 LINE",
"230 328 OFFCURVE",
"290 353 OFFCURVE",
"349 353 CURVE SMOOTH",
"390 353 OFFCURVE",
"409 332 OFFCURVE",
"409 300 CURVE SMOOTH",
"409 213 OFFCURVE",
"232 109 OFFCURVE",
"20 54 CURVE",
"44 -12 LINE"
);
}
);
width = 504;
}
);
unicode = 11692;
category = Letter;
},
{
glyphname = uni11693;
lastChange = "2018-04-03 16:18:36 +0000";
layers = (
{
layerId = UUID0;
paths = (
{
closed = 1;
nodes = (
"400 0 LINE",
"400 263 LINE SMOOTH",
"400 360 OFFCURVE",
"349 432 OFFCURVE",
"231 432 CURVE SMOOTH",
"226 432 OFFCURVE",
"221 432 OFFCURVE",
"216 431 CURVE",
"216 550 LINE",
"627 550 LINE",
"627 0 LINE",
"712 0 LINE",
"712 625 LINE",
"30 625 LINE",
"30 550 LINE",
"131 550 LINE",
"131 415 LINE",
"81 397 OFFCURVE",
"46 362 OFFCURVE",
"46 324 CURVE SMOOTH",
"46 282 OFFCURVE",
"130 246 OFFCURVE",
"177 246 CURVE SMOOTH",
"207 246 OFFCURVE",
"216 280 OFFCURVE",
"216 310 CURVE SMOOTH",
"216 359 LINE",
"226 359 LINE SMOOTH",
"265 359 OFFCURVE",
"315 340 OFFCURVE",
"315 260 CURVE SMOOTH",
"315 0 LINE"
);
},
{
closed = 1;
nodes = (
"543 253 OFFCURVE",
"573 281 OFFCURVE",
"573 318 CURVE SMOOTH",
"573 353 OFFCURVE",
"543 383 OFFCURVE",
"508 383 CURVE SMOOTH",
"472 383 OFFCURVE",
"443 353 OFFCURVE",
"443 318 CURVE SMOOTH",
"443 281 OFFCURVE",
"472 253 OFFCURVE",
"508 253 CURVE SMOOTH"
);
}
);
width = 772;
}
);
unicode = 11693;
category = Letter;
},
{
glyphname = uni11694;
lastChange = "2018-04-03 16:18:36 +0000";
layers = (
{
layerId = UUID0;
paths = (
{
closed = 1;
nodes = (
"384 -12 OFFCURVE",
"473 51 OFFCURVE",
"529 126 CURVE",
"472 169 LINE",
"422 106 OFFCURVE",
"359 63 OFFCURVE",
"275 63 CURVE SMOOTH",
"166 63 OFFCURVE",
"115 126 OFFCURVE",
"115 213 CURVE SMOOTH",
"115 342 OFFCURVE",
"253 388 OFFCURVE",
"382 392 CURVE",
"382 625 LINE",
"50 625 LINE",
"50 550 LINE",
"297 550 LINE",
"297 457 LINE",
"171 439 OFFCURVE",
"30 358 OFFCURVE",
"30 208 CURVE SMOOTH",
"30 74 OFFCURVE",
"124 -12 OFFCURVE",
"269 -12 CURVE SMOOTH"
);
}
);
width = 534;
}
);
unicode = 11694;
category = Letter;
},
{
glyphname = uni11695;
lastChange = "2018-04-03 16:18:36 +0000";
layers = (
{
layerId = UUID0;
paths = (
{
closed = 1;
nodes = (
"402 -12 OFFCURVE",
"475 59 OFFCURVE",
"475 163 CURVE SMOOTH",
"475 239 OFFCURVE",
"428 297 OFFCURVE",
"324 356 CURVE",
"359 387 OFFCURVE",
"386 435 OFFCURVE",
"386 481 CURVE SMOOTH",
"386 578 OFFCURVE",
"312 637 OFFCURVE",
"219 637 CURVE SMOOTH",
"168 637 OFFCURVE",
"123 621 OFFCURVE",
"95 597 CURVE",
"147 542 LINE",
"165 554 OFFCURVE",
"189 562 OFFCURVE",
"215 562 CURVE SMOOTH",
"262 562 OFFCURVE",
"302 533 OFFCURVE",
"302 486 CURVE SMOOTH",
"302 422 OFFCURVE",
"248 389 OFFCURVE",
"190 353 CURVE SMOOTH",
"119 309 OFFCURVE",
"40 260 OFFCURVE",
"40 157 CURVE SMOOTH",
"40 57 OFFCURVE",
"122 -12 OFFCURVE",
"255 -12 CURVE SMOOTH"
);
},
{
closed = 1;
nodes = (
"168 63 OFFCURVE",
"125 98 OFFCURVE",
"125 163 CURVE SMOOTH",
"125 236 OFFCURVE",
"193 274 OFFCURVE",
"258 310 CURVE",
"325 273 OFFCURVE",
"390 228 OFFCURVE",
"390 162 CURVE SMOOTH",
"390 98 OFFCURVE",
"347 63 OFFCURVE",
"259 63 CURVE SMOOTH"
);
}
);
width = 515;
}
);
unicode = 11695;
category = Letter;
},
{
glyphname = uni11696;
lastChange = "2018-04-03 16:18:36 +0000";
layers = (
{
layerId = UUID0;
paths = (
{
closed = 1;
nodes = (
"346 -12 OFFCURVE",
"421 76 OFFCURVE",
"421 185 CURVE SMOOTH",
"421 277 OFFCURVE",
"360 338 OFFCURVE",
"274 363 CURVE",
"272 344 LINE",
"352 370 OFFCURVE",
"393 413 OFFCURVE",
"393 486 CURVE SMOOTH",
"393 578 OFFCURVE",
"320 637 OFFCURVE",
"180 637 CURVE SMOOTH",
"125 637 OFFCURVE",
"83 631 OFFCURVE",
"55 625 CURVE",
"62 554 LINE",
"92 559 OFFCURVE",
"131 562 OFFCURVE",
"175 562 CURVE SMOOTH",
"259 562 OFFCURVE",
"308 534 OFFCURVE",
"308 485 CURVE SMOOTH",
"308 401 OFFCURVE",
"203 390 OFFCURVE",
"150 390 CURVE SMOOTH",
"130 390 LINE",
"130 315 LINE",
"149 315 LINE SMOOTH",
"252 315 OFFCURVE",
"332 276 OFFCURVE",
"336 192 CURVE",
"289 213 OFFCURVE",
"228 223 OFFCURVE",
"186 223 CURVE SMOOTH",
"103 223 OFFCURVE",
"40 172 OFFCURVE",
"40 103 CURVE SMOOTH",
"40 32 OFFCURVE",
"94 -12 OFFCURVE",
"192 -12 CURVE SMOOTH"
);
},
{
closed = 1;
nodes = (
"149 63 OFFCURVE",
"122 78 OFFCURVE",
"122 105 CURVE SMOOTH",
"122 136 OFFCURVE",
"153 150 OFFCURVE",
"183 150 CURVE SMOOTH",
"230 150 OFFCURVE",
"281 139 OFFCURVE",
"317 122 CURVE",
"293 86 OFFCURVE",
"247 63 OFFCURVE",
"190 63 CURVE SMOOTH"
);
}
);
width = 461;
}
);
unicode = 11696;
category = Letter;
},
{
glyphname = uni11697;
lastChange = "2018-04-03 16:18:36 +0000";
layers = (
{
layerId = UUID0;
paths = (
{
closed = 1;
nodes = (
"598 -14 OFFCURVE",
"687 38 OFFCURVE",
"687 201 CURVE SMOOTH",
"687 339 OFFCURVE",
"633 383 OFFCURVE",
"553 383 CURVE SMOOTH",
"482 383 OFFCURVE",
"429 328 OFFCURVE",
"429 254 CURVE SMOOTH",
"429 175 OFFCURVE",
"489 125 OFFCURVE",
"581 98 CURVE",
"560 67 OFFCURVE",
"528 61 OFFCURVE",
"495 61 CURVE SMOOTH",
"438 61 OFFCURVE",
"393 98 OFFCURVE",
"298 178 CURVE",
"305 232 OFFCURVE",
"307 298 OFFCURVE",
"307 378 CURVE SMOOTH",
"307 625 LINE",
"44 625 LINE",
"44 550 LINE",
"222 550 LINE",
"222 387 LINE SMOOTH",
"222 318 OFFCURVE",
"221 263 OFFCURVE",
"219 219 CURVE",
"201 225 OFFCURVE",
"182 228 OFFCURVE",
"163 228 CURVE SMOOTH",
"77 228 OFFCURVE",
"30 176 OFFCURVE",
"30 108 CURVE SMOOTH",
"30 43 OFFCURVE",
"68 -12 OFFCURVE",
"150 -12 CURVE SMOOTH",
"227 -12 OFFCURVE",
"277 28 OFFCURVE",
"286 118 CURVE",
"268 103 LINE",
"352 26 OFFCURVE",
"404 -14 OFFCURVE",
"495 -14 CURVE SMOOTH"
);
},
{
closed = 1;
nodes = (
"130 61 OFFCURVE",
"112 79 OFFCURVE",
"112 108 CURVE SMOOTH",
"112 136 OFFCURVE",
"130 155 OFFCURVE",
"161 155 CURVE SMOOTH",
"187 155 OFFCURVE",
"210 145 OFFCURVE",
"229 133 CURVE",
"216 186 LINE",
"212 88 OFFCURVE",
"189 61 OFFCURVE",
"156 61 CURVE SMOOTH"
);
},
{
closed = 1;
nodes = (
"547 186 OFFCURVE",
"511 211 OFFCURVE",
"511 261 CURVE SMOOTH",
"511 290 OFFCURVE",
"526 310 OFFCURVE",
"553 310 CURVE SMOOTH",
"582 310 OFFCURVE",
"605 292 OFFCURVE",
"605 205 CURVE SMOOTH",
"605 188 OFFCURVE",
"605 179 OFFCURVE",
"604 170 CURVE"
);
}
);
width = 707;
}
);
unicode = 11697;
category = Letter;
},
{
glyphname = uni11698;
lastChange = "2018-04-03 16:18:36 +0000";
layers = (
{
layerId = UUID0;
paths = (
{
closed = 1;
nodes = (
"330 -12 OFFCURVE",
"419 24 OFFCURVE",
"488 98 CURVE",
"519 68 OFFCURVE",
"551 31 OFFCURVE",
"584 -12 CURVE",
"641 25 LINE",
"606 74 OFFCURVE",
"570 118 OFFCURVE",
"532 155 CURVE",
"577 228 OFFCURVE",
"607 325 OFFCURVE",
"607 448 CURVE SMOOTH",
"607 562 OFFCURVE",
"554 637 OFFCURVE",
"443 637 CURVE SMOOTH",
"394 637 OFFCURVE",
"351 615 OFFCURVE",
"323 582 CURVE",
"295 615 OFFCURVE",
"251 637 OFFCURVE",
"204 637 CURVE SMOOTH",
"93 637 OFFCURVE",
"40 569 OFFCURVE",
"40 490 CURVE SMOOTH",
"40 450 OFFCURVE",
"60 397 OFFCURVE",
"95 356 CURVE",
"163 394 LINE",
"139 421 OFFCURVE",
"125 455 OFFCURVE",
"125 482 CURVE SMOOTH",
"125 540 OFFCURVE",
"156 564 OFFCURVE",
"202 564 CURVE SMOOTH",
"253 564 OFFCURVE",
"286 524 OFFCURVE",
"286 478 CURVE SMOOTH",
"286 448 LINE",
"361 448 LINE",
"361 478 LINE SMOOTH",
"361 524 OFFCURVE",
"394 564 OFFCURVE",
"445 564 CURVE SMOOTH",
"491 564 OFFCURVE",
"522 540 OFFCURVE",
"522 452 CURVE SMOOTH",
"522 352 OFFCURVE",
"504 270 OFFCURVE",
"471 207 CURVE",
"405 257 OFFCURVE",
"332 285 OFFCURVE",
"254 285 CURVE SMOOTH",
"134 285 OFFCURVE",
"56 215 OFFCURVE",
"56 128 CURVE SMOOTH",
"56 43 OFFCURVE",
"135 -12 OFFCURVE",
"246 -12 CURVE SMOOTH"
);
},
{
closed = 1;
nodes = (
"184 63 OFFCURVE",
"141 90 OFFCURVE",
"141 135 CURVE SMOOTH",
"141 182 OFFCURVE",
"189 210 OFFCURVE",
"248 210 CURVE SMOOTH",
"308 210 OFFCURVE",
"368 190 OFFCURVE",
"430 146 CURVE",
"383 92 OFFCURVE",
"319 63 OFFCURVE",
"247 63 CURVE SMOOTH"
);
}
);
width = 651;
}
);
unicode = 11698;
category = Letter;
},
{
glyphname = uni11699;
lastChange = "2018-04-03 16:18:36 +0000";
layers = (
{
layerId = UUID0;
paths = (
{
closed = 1;
nodes = (
"320 -12 OFFCURVE",
"391 80 OFFCURVE",
"391 179 CURVE SMOOTH",
"391 251 OFFCURVE",
"349 304 OFFCURVE",
"283 334 CURVE",
"333 364 OFFCURVE",
"366 411 OFFCURVE",
"366 480 CURVE SMOOTH",
"366 575 OFFCURVE",
"281 637 OFFCURVE",
"145 637 CURVE SMOOTH",
"116 637 OFFCURVE",
"89 636 OFFCURVE",
"43 630 CURVE",
"50 554 LINE",
"74 558 OFFCURVE",
"100 562 OFFCURVE",
"130 562 CURVE SMOOTH",
"216 562 OFFCURVE",
"281 537 OFFCURVE",
"281 476 CURVE SMOOTH",
"281 410 OFFCURVE",
"238 363 OFFCURVE",
"152 363 CURVE SMOOTH",
"93 363 LINE",
"93 288 LINE",
"155 288 LINE SMOOTH",
"260 288 OFFCURVE",
"306 245 OFFCURVE",
"306 180 CURVE SMOOTH",
"306 103 OFFCURVE",
"248 63 OFFCURVE",
"150 63 CURVE SMOOTH",
"116 63 OFFCURVE",
"89 64 OFFCURVE",
"52 69 CURVE",
"40 -6 LINE",
"85 -11 OFFCURVE",
"111 -12 OFFCURVE",
"145 -12 CURVE SMOOTH"
);
}
);
width = 431;
}
);
unicode = 11699;
category = Letter;
},
{
glyphname = uni1169A;
lastChange = "2018-04-03 16:18:36 +0000";
layers = (
{
layerId = UUID0;
paths = (
{
closed = 1;
nodes = (
"509 0 LINE",
"509 550 LINE",
"550 550 LINE",
"550 625 LINE",
"30 625 LINE",
"30 550 LINE",
"90 550 LINE",
"96 529 OFFCURVE",
"101 506 OFFCURVE",
"101 490 CURVE SMOOTH",
"101 440 OFFCURVE",
"83 403 OFFCURVE",
"64 365 CURVE SMOOTH",
"47 331 OFFCURVE",
"30 295 OFFCURVE",
"30 251 CURVE SMOOTH",
"30 161 OFFCURVE",
"101 98 OFFCURVE",
"242 98 CURVE SMOOTH",
"321 98 OFFCURVE",
"389 123 OFFCURVE",
"424 154 CURVE",
"424 0 LINE"
);
},
{
closed = 1;
nodes = (
"159 173 OFFCURVE",
"115 201 OFFCURVE",
"115 255 CURVE SMOOTH",
"115 291 OFFCURVE",
"137 337 OFFCURVE",
"157 379 CURVE",
"413 252 LINE",
"398 214 OFFCURVE",
"325 173 OFFCURVE",
"254 173 CURVE SMOOTH"
);
},
{
closed = 1;
nodes = (
"180 447 LINE",
"183 461 OFFCURVE",
"186 475 OFFCURVE",
"186 490 CURVE SMOOTH",
"186 516 OFFCURVE",
"183 535 OFFCURVE",
"178 550 CURVE",
"424 550 LINE",
"424 326 LINE"
);
}
);
width = 590;
}
);
unicode = 1169A;
category = Letter;
},
{
glyphname = uni1169B;
lastChange = "2018-04-03 16:18:36 +0000";
layers = (
{
layerId = UUID0;
paths = (
{
closed = 1;
nodes = (
"595 -14 OFFCURVE",
"689 44 OFFCURVE",
"689 186 CURVE SMOOTH",
"689 625 LINE",
"604 625 LINE",
"604 195 LINE SMOOTH",
"604 96 OFFCURVE",
"555 61 OFFCURVE",
"495 61 CURVE SMOOTH",
"438 61 OFFCURVE",
"393 98 OFFCURVE",
"298 178 CURVE",
"305 232 OFFCURVE",
"307 298 OFFCURVE",
"307 378 CURVE SMOOTH",
"307 625 LINE",
"44 625 LINE",
"44 550 LINE",
"222 550 LINE",
"222 387 LINE SMOOTH",
"222 318 OFFCURVE",
"221 263 OFFCURVE",
"218 219 CURVE",
"200 225 OFFCURVE",
"181 228 OFFCURVE",
"162 228 CURVE SMOOTH",
"76 228 OFFCURVE",
"29 176 OFFCURVE",
"29 108 CURVE SMOOTH",
"29 43 OFFCURVE",
"67 -12 OFFCURVE",
"149 -12 CURVE SMOOTH",
"226 -12 OFFCURVE",
"276 28 OFFCURVE",
"285 118 CURVE",
"267 103 LINE",
"351 26 OFFCURVE",
"403 -14 OFFCURVE",
"494 -14 CURVE SMOOTH"
);
},
{
closed = 1;
nodes = (
"130 61 OFFCURVE",
"112 79 OFFCURVE",
"112 108 CURVE SMOOTH",
"112 136 OFFCURVE",
"130 155 OFFCURVE",
"161 155 CURVE SMOOTH",
"187 155 OFFCURVE",
"210 145 OFFCURVE",
"229 133 CURVE",
"216 186 LINE",
"212 88 OFFCURVE",
"189 61 OFFCURVE",
"156 61 CURVE SMOOTH"
);
}
);
width = 749;
}
);
unicode = 1169B;
category = Letter;
},
{
glyphname = uni1169C;
lastChange = "2018-04-03 16:18:36 +0000";
layers = (
{
layerId = UUID0;
paths = (
{
closed = 1;
nodes = (
"396 -12 OFFCURVE",
"522 46 OFFCURVE",
"522 230 CURVE SMOOTH",
"522 550 LINE",
"562 550 LINE",
"562 625 LINE",
"30 625 LINE",
"30 550 LINE",
"92 550 LINE",
"101 530 OFFCURVE",
"114 485 OFFCURVE",
"114 440 CURVE SMOOTH",
"114 389 OFFCURVE",
"98 349 OFFCURVE",
"80 306 CURVE SMOOTH",
"61 261 OFFCURVE",
"43 214 OFFCURVE",
"43 160 CURVE SMOOTH",
"43 66 OFFCURVE",
"102 -12 OFFCURVE",
"265 -12 CURVE SMOOTH"
);
},
{
closed = 1;
nodes = (
"174 63 OFFCURVE",
"128 101 OFFCURVE",
"128 165 CURVE SMOOTH",
"128 205 OFFCURVE",
"144 246 OFFCURVE",
"164 293 CURVE SMOOTH",
"182 335 OFFCURVE",
"199 381 OFFCURVE",
"199 440 CURVE SMOOTH",
"199 492 OFFCURVE",
"184 536 OFFCURVE",
"178 550 CURVE",
"437 550 LINE",
"437 230 LINE SMOOTH",
"437 129 OFFCURVE",
"383 63 OFFCURVE",
"267 63 CURVE SMOOTH"
);
}
);
width = 603;
}
);
unicode = 1169C;
category = Letter;
},
{
glyphname = uni1169D;
lastChange = "2018-04-03 16:18:36 +0000";
layers = (
{
layerId = UUID0;
paths = (
{
closed = 1;
nodes = (
"410 0 LINE",
"410 323 LINE SMOOTH",
"410 400 OFFCURVE",
"359 472 OFFCURVE",
"241 472 CURVE SMOOTH",
"236 472 OFFCURVE",
"231 472 OFFCURVE",
"226 471 CURVE",
"226 625 LINE",
"10 625 LINE",
"10 550 LINE",
"141 550 LINE",
"141 455 LINE",
"91 437 OFFCURVE",
"56 402 OFFCURVE",
"56 364 CURVE SMOOTH",
"56 322 OFFCURVE",
"140 286 OFFCURVE",
"187 286 CURVE SMOOTH",
"213 286 OFFCURVE",
"226 314 OFFCURVE",
"226 350 CURVE SMOOTH",
"226 399 LINE",
"236 399 LINE SMOOTH",
"275 399 OFFCURVE",
"325 380 OFFCURVE",
"325 320 CURVE SMOOTH",
"325 0 LINE"
);
}
);
width = 490;
}
);
unicode = 1169D;
category = Letter;
},
{
glyphname = uni1169E;
lastChange = "2018-04-03 16:18:36 +0000";
layers = (
{
layerId = UUID0;
paths = (
{
closed = 1;
nodes = (
"534 47 LINE",
"506 62 OFFCURVE",
"494 92 OFFCURVE",
"494 127 CURVE SMOOTH",
"494 625 LINE",
"409 625 LINE",
"409 234 LINE",
"387 205 OFFCURVE",
"329 173 OFFCURVE",
"244 173 CURVE SMOOTH",
"171 173 OFFCURVE",
"115 196 OFFCURVE",
"115 255 CURVE SMOOTH",
"115 295 OFFCURVE",
"125 333 OFFCURVE",
"136 372 CURVE SMOOTH",
"148 413 OFFCURVE",
"159 458 OFFCURVE",
"159 498 CURVE SMOOTH",
"159 557 OFFCURVE",
"127 616 OFFCURVE",
"66 640 CURVE",
"36 567 LINE",
"60 551 OFFCURVE",
"74 520 OFFCURVE",
"74 484 CURVE SMOOTH",
"74 452 OFFCURVE",
"66 412 OFFCURVE",
"53 369 CURVE SMOOTH",
"42 332 OFFCURVE",
"30 289 OFFCURVE",
"30 251 CURVE SMOOTH",
"30 155 OFFCURVE",
"102 98 OFFCURVE",
"242 98 CURVE SMOOTH",
"306 98 OFFCURVE",
"370 115 OFFCURVE",
"409 140 CURVE",
"409 125 LINE SMOOTH",
"409 53 OFFCURVE",
"434 7 OFFCURVE",
"498 -20 CURVE"
);
}
);
width = 574;
}
);
unicode = 1169E;
category = Letter;
},
{
glyphname = uni1169F;
lastChange = "2018-04-03 16:18:36 +0000";
layers = (
{
layerId = UUID0;
paths = (
{
closed = 1;
nodes = (
"385 -12 OFFCURVE",
"436 62 OFFCURVE",
"436 136 CURVE SMOOTH",
"436 208 OFFCURVE",
"384 261 OFFCURVE",
"297 261 CURVE SMOOTH",
"206 261 OFFCURVE",
"157 208 OFFCURVE",
"157 144 CURVE SMOOTH",
"157 106 OFFCURVE",
"176 73 OFFCURVE",
"202 50 CURVE",
"204 58 LINE",
"153 72 OFFCURVE",
"124 126 OFFCURVE",
"124 194 CURVE SMOOTH",
"124 265 OFFCURVE",
"155 303 OFFCURVE",
"216 354 CURVE SMOOTH",
"269 399 OFFCURVE",
"306 439 OFFCURVE",
"306 504 CURVE SMOOTH",
"306 589 OFFCURVE",
"233 625 OFFCURVE",
"148 625 CURVE SMOOTH",
"61 625 LINE",
"61 550 LINE",
"137 550 LINE SMOOTH",
"194 550 OFFCURVE",
"221 535 OFFCURVE",
"221 501 CURVE SMOOTH",
"221 465 OFFCURVE",
"190 436 OFFCURVE",
"154 402 CURVE SMOOTH",
"89 342 OFFCURVE",
"40 290 OFFCURVE",
"40 190 CURVE SMOOTH",
"40 86 OFFCURVE",
"98 -12 OFFCURVE",
"248 -12 CURVE SMOOTH"
);
},
{
closed = 1;
nodes = (
"257 82 OFFCURVE",
"239 114 OFFCURVE",
"239 137 CURVE SMOOTH",
"239 164 OFFCURVE",
"257 188 OFFCURVE",
"294 188 CURVE SMOOTH",
"330 188 OFFCURVE",
"354 171 OFFCURVE",
"354 137 CURVE SMOOTH",
"354 97 OFFCURVE",
"328 72 OFFCURVE",
"293 57 CURVE"
);
}
);
width = 470;
}
);
unicode = 1169F;
category = Letter;
},
{
glyphname = uni116A0;
lastChange = "2018-04-03 16:18:36 +0000";
layers = (
{
layerId = UUID0;
paths = (
{
closed = 1;
nodes = (
"485 47 LINE",
"457 62 OFFCURVE",
"445 92 OFFCURVE",
"445 127 CURVE SMOOTH",
"445 427 LINE",
"360 427 LINE",
"360 305 LINE",
"338 272 OFFCURVE",
"292 242 OFFCURVE",
"230 242 CURVE SMOOTH",
"165 242 OFFCURVE",
"131 277 OFFCURVE",
"131 336 CURVE SMOOTH",
"131 369 OFFCURVE",
"137 403 OFFCURVE",
"143 433 CURVE SMOOTH",
"148 457 OFFCURVE",
"152 478 OFFCURVE",
"152 501 CURVE SMOOTH",
"152 550 OFFCURVE",
"130 613 OFFCURVE",
"60 640 CURVE",
"30 567 LINE",
"54 551 OFFCURVE",
"68 527 OFFCURVE",
"68 500 CURVE SMOOTH",
"68 475 OFFCURVE",
"65 456 OFFCURVE",
"58 423 CURVE SMOOTH",
"52 395 OFFCURVE",
"46 364 OFFCURVE",
"46 326 CURVE SMOOTH",
"46 235 OFFCURVE",
"107 169 OFFCURVE",
"225 169 CURVE SMOOTH",
"287 169 OFFCURVE",
"336 189 OFFCURVE",
"360 211 CURVE",
"360 125 LINE SMOOTH",
"360 53 OFFCURVE",
"385 7 OFFCURVE",
"449 -20 CURVE"
);
}
);
width = 525;
}
);
unicode = 116A0;
category = Letter;
},
{
glyphname = uni116A1;
lastChange = "2018-04-03 16:18:36 +0000";
layers = (
{
layerId = UUID0;
paths = (
{
closed = 1;
nodes = (
"356 -12 OFFCURVE",
"451 77 OFFCURVE",
"451 204 CURVE SMOOTH",
"451 255 OFFCURVE",
"436 296 OFFCURVE",
"412 328 CURVE",
"428 359 OFFCURVE",
"438 397 OFFCURVE",
"438 441 CURVE SMOOTH",
"438 541 OFFCURVE",
"369 637 OFFCURVE",
"217 637 CURVE SMOOTH",
"155 637 OFFCURVE",
"95 615 OFFCURVE",
"54 582 CURVE",
"104 523 LINE",
"134 546 OFFCURVE",
"175 562 OFFCURVE",
"220 562 CURVE SMOOTH",
"307 562 OFFCURVE",
"353 507 OFFCURVE",
"353 433 CURVE SMOOTH",
"353 415 OFFCURVE",
"351 397 OFFCURVE",
"346 382 CURVE",
"308 401 OFFCURVE",
"272 410 OFFCURVE",
"226 410 CURVE SMOOTH",
"156 410 OFFCURVE",
"93 381 OFFCURVE",
"93 322 CURVE SMOOTH",
"93 265 OFFCURVE",
"137 230 OFFCURVE",
"223 230 CURVE SMOOTH",
"281 230 OFFCURVE",
"324 242 OFFCURVE",
"357 265 CURVE",
"363 248 OFFCURVE",
"366 228 OFFCURVE",
"366 206 CURVE SMOOTH",
"366 113 OFFCURVE",
"305 63 OFFCURVE",
"215 63 CURVE SMOOTH",
"166 63 OFFCURVE",
"112 70 OFFCURVE",
"66 102 CURVE",
"30 40 LINE",
"78 6 OFFCURVE",
"138 -12 OFFCURVE",
"209 -12 CURVE SMOOTH"
);
},
{
closed = 1;
nodes = (
"188 295 OFFCURVE",
"168 305 OFFCURVE",
"168 323 CURVE SMOOTH",
"168 340 OFFCURVE",
"195 349 OFFCURVE",
"234 349 CURVE SMOOTH",
"284 349 OFFCURVE",
"309 332 OFFCURVE",
"330 315 CURVE",
"339 341 LINE",
"308 312 OFFCURVE",
"277 295 OFFCURVE",
"234 295 CURVE SMOOTH"
);
}
);
width = 491;
}
);
unicode = 116A1;
category = Letter;
},
{
glyphname = uni116A2;
lastChange = "2018-04-03 16:18:36 +0000";
layers = (
{
layerId = UUID0;
paths = (
{
closed = 1;
nodes = (
"619 47 LINE",
"591 62 OFFCURVE",
"579 85 OFFCURVE",
"579 127 CURVE SMOOTH",
"579 437 LINE SMOOTH",
"579 573 OFFCURVE",
"498 637 OFFCURVE",
"395 637 CURVE SMOOTH",
"293 637 OFFCURVE",
"219 576 OFFCURVE",
"157 492 CURVE",
"184 491 LINE",
"150 543 OFFCURVE",
"107 597 OFFCURVE",
"54 640 CURVE",
"5 582 LINE",
"50 541 OFFCURVE",
"93 489 OFFCURVE",
"124 444 CURVE",
"74 359 OFFCURVE",
"45 262 OFFCURVE",
"45 182 CURVE SMOOTH",
"45 54 OFFCURVE",
"85 -12 OFFCURVE",
"165 -12 CURVE SMOOTH",
"241 -12 OFFCURVE",
"288 49 OFFCURVE",
"288 192 CURVE SMOOTH",
"288 272 OFFCURVE",
"259 362 OFFCURVE",
"215 442 CURVE",
"262 511 OFFCURVE",
"324 561 OFFCURVE",
"392 561 CURVE SMOOTH",
"454 561 OFFCURVE",
"494 522 OFFCURVE",
"494 428 CURVE SMOOTH",
"494 125 LINE SMOOTH",
"494 53 OFFCURVE",
"519 7 OFFCURVE",
"583 -20 CURVE"
);
},
{
closed = 1;
nodes = (
"139 63 OFFCURVE",
"125 108 OFFCURVE",
"125 182 CURVE SMOOTH",
"125 250 OFFCURVE",
"146 326 OFFCURVE",
"179 394 CURVE",
"159 394 LINE",
"192 326 OFFCURVE",
"208 253 OFFCURVE",
"208 190 CURVE SMOOTH",
"208 110 OFFCURVE",
"193 63 OFFCURVE",
"166 63 CURVE SMOOTH"
);
}
);
width = 659;
}
);
unicode = 116A2;
category = Letter;
},
{
glyphname = uni116A3;
lastChange = "2018-04-03 16:18:36 +0000";
layers = (
{
layerId = UUID0;
paths = (
{
closed = 1;
nodes = (
"509 -1 LINE",
"509 549 LINE",
"550 549 LINE",
"550 624 LINE",
"30 624 LINE",
"30 549 LINE",
"123 549 LINE",
"83 571 LINE",
"92 546 OFFCURVE",
"101 511 OFFCURVE",
"101 489 CURVE SMOOTH",
"101 440 OFFCURVE",
"83 403 OFFCURVE",
"65 366 CURVE SMOOTH",
"47 330 OFFCURVE",
"30 295 OFFCURVE",
"30 250 CURVE SMOOTH",
"30 163 OFFCURVE",
"101 97 OFFCURVE",
"242 97 CURVE SMOOTH",
"321 97 OFFCURVE",
"383 116 OFFCURVE",
"424 153 CURVE",
"424 -1 LINE"
);
},
{
closed = 1;
nodes = (
"161 172 OFFCURVE",
"115 199 OFFCURVE",
"115 254 CURVE SMOOTH",
"115 283 OFFCURVE",
"129 317 OFFCURVE",
"146 353 CURVE SMOOTH",
"166 396 OFFCURVE",
"186 442 OFFCURVE",
"186 489 CURVE SMOOTH",
"186 524 OFFCURVE",
"180 547 OFFCURVE",
"172 564 CURVE",
"145 549 LINE",
"424 549 LINE",
"424 297 LINE",
"416 220 OFFCURVE",
"360 172 OFFCURVE",
"254 172 CURVE SMOOTH"
);
}
);
width = 590;
}
);
unicode = 116A3;
category = Letter;
},
{
glyphname = uni116A4;
lastChange = "2018-04-03 16:18:36 +0000";
layers = (
{
layerId = UUID0;
paths = (
{
closed = 1;
nodes = (
"293 -12 OFFCURVE",
"360 43 OFFCURVE",
"360 184 CURVE SMOOTH",
"360 351 OFFCURVE",
"251 517 OFFCURVE",
"108 639 CURVE",
"60 582 LINE",
"120 528 OFFCURVE",
"169 471 OFFCURVE",
"206 413 CURVE",
"130 364 OFFCURVE",
"77 284 OFFCURVE",
"77 180 CURVE SMOOTH",
"77 52 OFFCURVE",
"137 -12 OFFCURVE",
"218 -12 CURVE SMOOTH"
);
},
{
closed = 1;
nodes = (
"183 63 OFFCURVE",
"157 100 OFFCURVE",
"157 183 CURVE SMOOTH",
"157 261 OFFCURVE",
"186 311 OFFCURVE",
"242 348 CURVE",
"267 294 OFFCURVE",
"280 241 OFFCURVE",
"280 180 CURVE SMOOTH",
"280 107 OFFCURVE",
"258 63 OFFCURVE",
"218 63 CURVE SMOOTH"
);
}
);
width = 420;
}
);
unicode = 116A4;
category = Letter;
},
{
glyphname = uni116A5;
lastChange = "2018-04-03 16:18:36 +0000";
layers = (
{
layerId = UUID0;
paths = (
{
closed = 1;
nodes = (
"277 32 LINE",
"173 115 OFFCURVE",
"125 193 OFFCURVE",
"125 264 CURVE SMOOTH",
"125 352 OFFCURVE",
"186 376 OFFCURVE",
"232 376 CURVE SMOOTH",
"298 376 OFFCURVE",
"326 330 OFFCURVE",
"326 287 CURVE SMOOTH",
"326 260 LINE",
"401 260 LINE",
"401 290 LINE SMOOTH",
"401 336 OFFCURVE",
"435 376 OFFCURVE",
"505 376 CURVE SMOOTH",
"551 376 OFFCURVE",
"602 352 OFFCURVE",
"602 264 CURVE SMOOTH",
"602 193 OFFCURVE",
"564 115 OFFCURVE",
"460 32 CURVE",
"498 -17 LINE",
"592 51 OFFCURVE",
"687 142 OFFCURVE",
"687 272 CURVE SMOOTH",
"687 353 OFFCURVE",
"630 449 OFFCURVE",
"513 449 CURVE SMOOTH",
"441 449 OFFCURVE",
"392 422 OFFCURVE",
"363 389 CURVE",
"336 422 OFFCURVE",
"296 449 OFFCURVE",
"224 449 CURVE SMOOTH",
"106 449 OFFCURVE",
"40 366 OFFCURVE",
"40 272 CURVE SMOOTH",
"40 142 OFFCURVE",
"135 51 OFFCURVE",
"229 -17 CURVE"
);
},
{
closed = 1;
nodes = (
"676 550 LINE",
"676 625 LINE",
"50 625 LINE",
"50 550 LINE"
);
}
);
width = 727;
}
);
unicode = 116A5;
category = Letter;
},
{
glyphname = uni116A6;
lastChange = "2018-04-03 16:18:36 +0000";
layers = (
{
layerId = UUID0;
paths = (
{
closed = 1;
nodes = (
"464 47 LINE",
"436 62 OFFCURVE",
"424 92 OFFCURVE",
"424 127 CURVE SMOOTH",
"424 425 LINE",
"339 425 LINE",
"339 308 LINE SMOOTH",
"339 262 OFFCURVE",
"303 212 OFFCURVE",
"214 212 CURVE SMOOTH",
"153 212 OFFCURVE",
"115 248 OFFCURVE",
"115 291 CURVE SMOOTH",
"115 332 OFFCURVE",
"147 360 OFFCURVE",
"181 389 CURVE SMOOTH",
"228 428 OFFCURVE",
"256 463 OFFCURVE",
"256 516 CURVE SMOOTH",
"256 578 OFFCURVE",
"217 632 OFFCURVE",
"71 635 CURVE",
"59 565 LINE",
"160 562 OFFCURVE",
"171 535 OFFCURVE",
"171 506 CURVE SMOOTH",
"171 478 OFFCURVE",
"145 454 OFFCURVE",
"111 423 CURVE SMOOTH",
"76 392 OFFCURVE",
"30 350 OFFCURVE",
"30 284 CURVE SMOOTH",
"30 212 OFFCURVE",
"84 139 OFFCURVE",
"209 139 CURVE SMOOTH",
"255 139 OFFCURVE",
"303 155 OFFCURVE",
"339 183 CURVE",
"339 125 LINE SMOOTH",
"339 53 OFFCURVE",
"364 7 OFFCURVE",
"428 -20 CURVE"
);
}
);
width = 504;
}
);
unicode = 116A6;
category = Letter;
},
{
glyphname = uni116A7;
lastChange = "2018-04-03 16:18:36 +0000";
layers = (
{
layerId = UUID0;
paths = (
{
closed = 1;
nodes = (
"364 -11 LINE",
"348 24 OFFCURVE",
"329 64 OFFCURVE",
"305 100 CURVE",
"360 145 OFFCURVE",
"413 224 OFFCURVE",
"413 335 CURVE SMOOTH",
"413 427 OFFCURVE",
"386 526 OFFCURVE",
"289 559 CURVE",
"280 550 LINE",
"499 550 LINE",
"499 125 LINE SMOOTH",
"499 53 OFFCURVE",
"524 7 OFFCURVE",
"588 -20 CURVE",
"624 47 LINE",
"596 62 OFFCURVE",
"584 92 OFFCURVE",
"584 127 CURVE SMOOTH",
"584 625 LINE",
"30 625 LINE",
"30 550 LINE",
"167 550 LINE",
"159 559 LINE",
"111 542 OFFCURVE",
"77 504 OFFCURVE",
"77 446 CURVE SMOOTH",
"77 364 OFFCURVE",
"134 322 OFFCURVE",
"222 322 CURVE SMOOTH",
"255 322 OFFCURVE",
"295 332 OFFCURVE",
"329 349 CURVE",
"329 340 OFFCURVE",
"329 332 OFFCURVE",
"329 323 CURVE SMOOTH",
"329 254 OFFCURVE",
"304 192 OFFCURVE",
"258 156 CURVE",
"226 188 OFFCURVE",
"188 209 OFFCURVE",
"143 209 CURVE SMOOTH",
"99 209 OFFCURVE",
"78 180 OFFCURVE",
"78 149 CURVE SMOOTH",
"78 113 OFFCURVE",
"119 62 OFFCURVE",
"193 62 CURVE SMOOTH",
"206 62 OFFCURVE",
"220 64 OFFCURVE",
"235 68 CURVE",
"255 50 OFFCURVE",
"281 -3 OFFCURVE",
"296 -42 CURVE"
);
},
{
closed = 1;
nodes = (
"191 402 OFFCURVE",
"159 419 OFFCURVE",
"159 451 CURVE SMOOTH",
"159 480 OFFCURVE",
"178 499 OFFCURVE",
"218 499 CURVE SMOOTH",
"273 499 OFFCURVE",
"302 466 OFFCURVE",
"316 424 CURVE",
"291 411 OFFCURVE",
"261 402 OFFCURVE",
"221 402 CURVE SMOOTH"
);
}
);
width = 664;
}
);
unicode = 116A7;
category = Letter;
},
{
glyphname = uni116A8;
lastChange = "2018-04-03 16:18:36 +0000";
layers = (
{
layerId = UUID0;
paths = (
{
closed = 1;
nodes = (
"571 47 LINE",
"543 62 OFFCURVE",
"531 92 OFFCURVE",
"531 127 CURVE SMOOTH",
"531 312 LINE SMOOTH",
"531 466 OFFCURVE",
"450 512 OFFCURVE",
"358 512 CURVE SMOOTH",
"294 512 OFFCURVE",
"249 494 OFFCURVE",
"204 465 CURVE",
"186 495 OFFCURVE",
"166 523 OFFCURVE",
"145 550 CURVE",
"551 550 LINE",
"551 625 LINE",
"30 625 LINE",
"30 550 LINE",
"53 550 LINE",
"91 508 OFFCURVE",
"123 464 OFFCURVE",
"148 420 CURVE",
"80 351 OFFCURVE",
"47 256 OFFCURVE",
"47 168 CURVE SMOOTH",
"47 49 OFFCURVE",
"96 -12 OFFCURVE",
"165 -12 CURVE SMOOTH",
"238 -12 OFFCURVE",
"290 45 OFFCURVE",
"290 176 CURVE SMOOTH",
"290 259 OFFCURVE",
"271 331 OFFCURVE",
"240 398 CURVE",
"273 421 OFFCURVE",
"314 436 OFFCURVE",
"354 436 CURVE SMOOTH",
"404 436 OFFCURVE",
"446 408 OFFCURVE",
"446 303 CURVE SMOOTH",
"446 125 LINE SMOOTH",
"446 53 OFFCURVE",
"471 7 OFFCURVE",
"535 -20 CURVE"
);
},
{
closed = 1;
nodes = (
"137 63 OFFCURVE",
"127 103 OFFCURVE",
"127 168 CURVE SMOOTH",
"127 231 OFFCURVE",
"145 293 OFFCURVE",
"183 344 CURVE",
"201 291 OFFCURVE",
"210 240 OFFCURVE",
"210 172 CURVE SMOOTH",
"210 105 OFFCURVE",
"199 63 OFFCURVE",
"168 63 CURVE SMOOTH"
);
}
);
width = 611;
}
);
unicode = 116A8;
category = Letter;
},
{
glyphname = uni116A9;
lastChange = "2018-04-03 16:18:36 +0000";
layers = (
{
layerId = UUID0;
paths = (
{
closed = 1;
nodes = (
"409 -12 OFFCURVE",
"484 76 OFFCURVE",
"484 199 CURVE SMOOTH",
"484 282 OFFCURVE",
"441 333 OFFCURVE",
"381 361 CURVE",
"421 388 OFFCURVE",
"448 429 OFFCURVE",
"448 487 CURVE SMOOTH",
"448 572 OFFCURVE",
"397 625 OFFCURVE",
"262 625 CURVE SMOOTH",
"169 625 LINE",
"169 550 LINE",
"254 550 LINE SMOOTH",
"331 550 OFFCURVE",
"363 522 OFFCURVE",
"363 479 CURVE SMOOTH",
"363 403 OFFCURVE",
"302 390 OFFCURVE",
"258 390 CURVE SMOOTH",
"238 390 LINE",
"238 315 LINE",
"267 315 LINE SMOOTH",
"353 315 OFFCURVE",
"399 269 OFFCURVE",
"399 190 CURVE SMOOTH",
"399 113 OFFCURVE",
"352 63 OFFCURVE",
"278 63 CURVE SMOOTH",
"168 63 OFFCURVE",
"113 164 OFFCURVE",
"77 356 CURVE",
"10 339 LINE",
"35 142 OFFCURVE",
"99 -12 OFFCURVE",
"275 -12 CURVE SMOOTH"
);
}
);
width = 524;
}
);
unicode = 116A9;
category = Letter;
},
{
glyphname = uni116AA;
lastChange = "2018-04-03 16:18:36 +0000";
layers = (
{
layerId = UUID0;
paths = (
{
closed = 1;
nodes = (
"227 -155 LINE",
"231 -124 OFFCURVE",
"234 -90 OFFCURVE",
"234 -64 CURVE SMOOTH",
"234 -45 OFFCURVE",
"232 -27 OFFCURVE",
"229 -10 CURVE",
"246 -9 OFFCURVE",
"261 -7 OFFCURVE",
"276 -4 CURVE",
"277 -86 OFFCURVE",
"313 -149 OFFCURVE",
"404 -149 CURVE SMOOTH",
"446 -149 OFFCURVE",
"468 -141 OFFCURVE",
"490 -129 CURVE",
"464 -66 LINE",
"447 -74 OFFCURVE",
"428 -79 OFFCURVE",
"408 -79 CURVE SMOOTH",
"369 -79 OFFCURVE",
"351 -55 OFFCURVE",
"351 5 CURVE SMOOTH",
"351 25 LINE",
"413 62 OFFCURVE",
"441 122 OFFCURVE",
"441 184 CURVE SMOOTH",
"441 254 OFFCURVE",
"402 309 OFFCURVE",
"341 341 CURVE",
"386 369 OFFCURVE",
"416 412 OFFCURVE",
"416 480 CURVE SMOOTH",
"416 575 OFFCURVE",
"331 637 OFFCURVE",
"195 637 CURVE SMOOTH",
"181 637 OFFCURVE",
"139 636 OFFCURVE",
"93 630 CURVE",
"100 554 LINE",
"123 558 OFFCURVE",
"150 562 OFFCURVE",
"180 562 CURVE SMOOTH",
"266 562 OFFCURVE",
"331 537 OFFCURVE",
"331 476 CURVE SMOOTH",
"331 402 OFFCURVE",
"276 373 OFFCURVE",
"190 373 CURVE SMOOTH",
"143 373 LINE",
"143 298 LINE",
"205 298 LINE SMOOTH",
"310 298 OFFCURVE",
"356 250 OFFCURVE",
"356 185 CURVE SMOOTH",
"356 109 OFFCURVE",
"299 64 OFFCURVE",
"204 63 CURVE",
"180 104 OFFCURVE",
"142 129 OFFCURVE",
"97 129 CURVE SMOOTH",
"57 129 OFFCURVE",
"30 103 OFFCURVE",
"30 67 CURVE SMOOTH",
"30 13 OFFCURVE",
"78 -12 OFFCURVE",
"155 -12 CURVE",
"158 -29 OFFCURVE",
"159 -47 OFFCURVE",
"159 -65 CURVE SMOOTH",
"159 -99 OFFCURVE",
"155 -133 OFFCURVE",
"151 -155 CURVE"
);
}
);
width = 510;
}
);
unicode = 116AA;
category = Letter;
},
{
glyphname = uni116AB;
lastChange = "2018-04-03 16:18:36 +0000";
layers = (
{
layerId = UUID0;
paths = (
{
closed = 1;
nodes = (
"35 684 OFFCURVE",
"65 712 OFFCURVE",
"65 749 CURVE SMOOTH",
"65 784 OFFCURVE",
"35 814 OFFCURVE",
"0 814 CURVE SMOOTH",
"-36 814 OFFCURVE",
"-65 784 OFFCURVE",
"-65 749 CURVE SMOOTH",
"-65 712 OFFCURVE",
"-36 684 OFFCURVE",
"0 684 CURVE SMOOTH"
);
}
);
width = 0;
}
);
unicode = 116AB;
category = Letter;
},
{
glyphname = uni116AC;
lastChange = "2018-04-03 16:18:36 +0000";
layers = (
{
layerId = UUID0;
paths = (
{
closed = 1;
nodes = (
"130 390 OFFCURVE",
"160 418 OFFCURVE",
"160 455 CURVE SMOOTH",
"160 490 OFFCURVE",
"130 520 OFFCURVE",
"95 520 CURVE SMOOTH",
"59 520 OFFCURVE",
"30 490 OFFCURVE",
"30 455 CURVE SMOOTH",
"30 418 OFFCURVE",
"59 390 OFFCURVE",
"95 390 CURVE SMOOTH"
);
},
{
closed = 1;
nodes = (
"130 70 OFFCURVE",
"160 98 OFFCURVE",
"160 135 CURVE SMOOTH",
"160 170 OFFCURVE",
"130 200 OFFCURVE",
"95 200 CURVE SMOOTH",
"59 200 OFFCURVE",
"30 170 OFFCURVE",
"30 135 CURVE SMOOTH",
"30 98 OFFCURVE",
"59 70 OFFCURVE",
"95 70 CURVE SMOOTH"
);
}
);
width = 240;
}
);
unicode = 116AC;
category = Letter;
},
{
glyphname = uni116AD;
lastChange = "2018-04-03 16:18:36 +0000";
layers = (
{
layerId = UUID0;
paths = (
{
closed = 1;
nodes = (
"-78 660 LINE",
"33 905 LINE",
"-52 905 LINE",
"-163 660 LINE"
);
}
);
width = 0;
}
);
unicode = 116AD;
category = Mark;
},
{
glyphname = uni116AE;
lastChange = "2018-04-03 16:18:36 +0000";
layers = (
{
layerId = UUID0;
paths = (
{
closed = 1;
nodes = (
"165 -120 LINE",
"165 638 LINE SMOOTH",
"165 760 OFFCURVE",
"224 805 OFFCURVE",
"304 805 CURVE SMOOTH",
"406 805 OFFCURVE",
"451 734 OFFCURVE",
"451 655 CURVE SMOOTH",
"451 567 LINE",
"536 567 LINE",
"536 660 LINE SMOOTH",
"536 762 OFFCURVE",
"464 880 OFFCURVE",
"301 880 CURVE SMOOTH",
"165 880 OFFCURVE",
"80 801 OFFCURVE",
"80 644 CURVE SMOOTH",
"80 -120 LINE"
);
}
);
width = 304;
}
);
unicode = 116AE;
category = Letter;
},
{
glyphname = uni116AF;
lastChange = "2018-04-03 16:18:36 +0000";
layers = (
{
layerId = UUID0;
paths = (
{
closed = 1;
nodes = (
"256 -120 LINE",
"256 644 LINE SMOOTH",
"256 789 OFFCURVE",
"180 880 OFFCURVE",
"35 880 CURVE SMOOTH",
"-128 880 OFFCURVE",
"-200 762 OFFCURVE",
"-200 660 CURVE SMOOTH",
"-200 582 LINE",
"-115 582 LINE",
"-115 655 LINE SMOOTH",
"-115 734 OFFCURVE",
"-70 805 OFFCURVE",
"35 805 CURVE SMOOTH",
"125 805 OFFCURVE",
"171 753 OFFCURVE",
"171 638 CURVE SMOOTH",
"171 -120 LINE"
);
}
);
width = 356;
}
);
unicode = 116AF;
category = Letter;
},
{
glyphname = uni116B0;
lastChange = "2018-04-03 16:18:36 +0000";
layers = (
{
layerId = UUID0;
paths = (
{
closed = 1;
nodes = (
"80 -181 OFFCURVE",
"158 -172 OFFCURVE",
"229 -133 CURVE",
"208 -74 LINE",
"142 -108 OFFCURVE",
"90 -116 OFFCURVE",
"0 -116 CURVE SMOOTH",
"-90 -116 OFFCURVE",
"-139 -100 OFFCURVE",
"-189 -74 CURVE",
"-210 -133 LINE",
"-159 -165 OFFCURVE",
"-80 -181 OFFCURVE",
"0 -181 CURVE SMOOTH"
);
}
);
width = 0;
}
);
unicode = 116B0;
category = Letter;
},
{
glyphname = uni116B1;
lastChange = "2018-04-03 16:18:36 +0000";
layers = (
{
layerId = UUID0;
paths = (
{
closed = 1;
nodes = (
"80 -181 OFFCURVE",
"158 -172 OFFCURVE",
"229 -133 CURVE",
"208 -74 LINE",
"142 -108 OFFCURVE",
"90 -116 OFFCURVE",
"0 -116 CURVE SMOOTH",
"-90 -116 OFFCURVE",
"-139 -100 OFFCURVE",
"-189 -74 CURVE",
"-210 -133 LINE",
"-159 -165 OFFCURVE",
"-80 -181 OFFCURVE",
"0 -181 CURVE SMOOTH"
);
},
{
closed = 1;
nodes = (
"80 -291 OFFCURVE",
"158 -282 OFFCURVE",
"229 -243 CURVE",
"208 -184 LINE",
"142 -218 OFFCURVE",
"90 -226 OFFCURVE",
"0 -226 CURVE SMOOTH",
"-90 -226 OFFCURVE",
"-139 -210 OFFCURVE",
"-189 -184 CURVE",
"-210 -243 LINE",
"-159 -275 OFFCURVE",
"-80 -291 OFFCURVE",
"0 -291 CURVE SMOOTH"
);
}
);
width = 0;
}
);
unicode = 116B1;
category = Mark;
},
{
glyphname = uni116B2;
lastChange = "2018-04-03 16:18:36 +0000";
layers = (
{
layerId = UUID0;
paths = (
{
closed = 1;
nodes = (
"182 710 LINE",
"182 769 LINE",
"-182 769 LINE",
"-182 710 LINE"
);
}
);
width = 0;
}
);
unicode = 116B2;
category = Mark;
},
{
glyphname = uni116B3;
lastChange = "2018-04-03 16:18:36 +0000";
layers = (
{
layerId = UUID0;
paths = (
{
closed = 1;
nodes = (
"182 815 LINE",
"182 874 LINE",
"-182 874 LINE",
"-182 815 LINE"
);
},
{
closed = 1;
nodes = (
"182 710 LINE",
"182 769 LINE",
"-182 769 LINE",
"-182 710 LINE"
);
}
);
width = 0;
}
);
unicode = 116B3;
category = Mark;
},
{
glyphname = uni116B4;
lastChange = "2018-04-03 16:18:36 +0000";
layers = (
{
layerId = UUID0;
paths = (
{
closed = 1;
nodes = (
"-172 684 LINE",
"-167 719 OFFCURVE",
"-137 745 OFFCURVE",
"-101 745 CURVE SMOOTH",
"-68 745 OFFCURVE",
"-34 723 OFFCURVE",
"-26 692 CURVE",
"30 692 LINE",
"38 723 OFFCURVE",
"72 745 OFFCURVE",
"105 745 CURVE SMOOTH",
"141 745 OFFCURVE",
"171 719 OFFCURVE",
"176 684 CURVE",
"240 684 LINE",
"240 754 OFFCURVE",
"183 810 OFFCURVE",
"108 810 CURVE SMOOTH",
"64 810 OFFCURVE",
"26 790 OFFCURVE",
"2 760 CURVE",
"-22 790 OFFCURVE",
"-60 810 OFFCURVE",
"-104 810 CURVE SMOOTH",
"-179 810 OFFCURVE",
"-236 754 OFFCURVE",
"-236 684 CURVE"
);
}
);
width = 0;
}
);
unicode = 116B4;
category = Mark;
},
{
glyphname = uni116B5;
lastChange = "2018-04-03 16:18:36 +0000";
layers = (
{
layerId = UUID0;
paths = (
{
closed = 1;
nodes = (
"-172 824 LINE",
"-167 859 OFFCURVE",
"-137 885 OFFCURVE",
"-101 885 CURVE SMOOTH",
"-68 885 OFFCURVE",
"-34 863 OFFCURVE",
"-26 832 CURVE",
"30 832 LINE",
"38 863 OFFCURVE",
"72 885 OFFCURVE",
"105 885 CURVE SMOOTH",
"141 885 OFFCURVE",
"171 859 OFFCURVE",
"176 824 CURVE",
"240 824 LINE",
"240 894 OFFCURVE",
"183 950 OFFCURVE",
"108 950 CURVE SMOOTH",
"64 950 OFFCURVE",
"26 930 OFFCURVE",
"2 900 CURVE",
"-22 930 OFFCURVE",
"-60 950 OFFCURVE",
"-104 950 CURVE SMOOTH",
"-179 950 OFFCURVE",
"-236 894 OFFCURVE",
"-236 824 CURVE"
);
},
{
closed = 1;
nodes = (
"-172 684 LINE",
"-167 719 OFFCURVE",
"-137 745 OFFCURVE",
"-101 745 CURVE SMOOTH",
"-68 745 OFFCURVE",
"-34 723 OFFCURVE",
"-26 692 CURVE",
"30 692 LINE",
"38 723 OFFCURVE",
"72 745 OFFCURVE",
"105 745 CURVE SMOOTH",
"141 745 OFFCURVE",
"171 719 OFFCURVE",
"176 684 CURVE",
"240 684 LINE",
"240 754 OFFCURVE",
"183 810 OFFCURVE",
"108 810 CURVE SMOOTH",
"64 810 OFFCURVE",
"26 790 OFFCURVE",
"2 760 CURVE",
"-22 790 OFFCURVE",
"-60 810 OFFCURVE",
"-104 810 CURVE SMOOTH",
"-179 810 OFFCURVE",
"-236 754 OFFCURVE",
"-236 684 CURVE"
);
}
);
width = 0;
}
);
unicode = 116B5;
category = Mark;
},
{
glyphname = uni116B6;
lastChange = "2018-04-03 16:18:36 +0000";
layers = (
{
layerId = UUID0;
paths = (
{
closed = 1;
nodes = (
"74 718 LINE",
"-210 930 LINE",
"-250 876 LINE",
"34 665 LINE"
);
}
);
width = 124;
}
);
unicode = 116B6;
category = Letter;
},
{
glyphname = uni116B7;
lastChange = "2018-04-03 16:18:36 +0000";
layers = (
{
layerId = UUID0;
paths = (
{
closed = 1;
nodes = (
"35 -210 OFFCURVE",
"65 -182 OFFCURVE",
"65 -145 CURVE SMOOTH",
"65 -110 OFFCURVE",
"35 -80 OFFCURVE",
"0 -80 CURVE SMOOTH",
"-36 -80 OFFCURVE",
"-65 -110 OFFCURVE",
"-65 -145 CURVE SMOOTH",
"-65 -182 OFFCURVE",
"-36 -210 OFFCURVE",
"0 -210 CURVE SMOOTH"
);
}
);
width = 0;
}
);
unicode = 116B7;
category = Mark;
},
{
glyphname = uni116C0;
lastChange = "2018-04-03 16:18:36 +0000";
layers = (
{
layerId = UUID0;
paths = (
{
closed = 1;
nodes = (
"209 233 OFFCURVE",
"247 269 OFFCURVE",
"247 316 CURVE SMOOTH",
"247 362 OFFCURVE",
"209 400 OFFCURVE",
"163 400 CURVE SMOOTH",
"118 400 OFFCURVE",
"80 362 OFFCURVE",
"80 316 CURVE SMOOTH",
"80 269 OFFCURVE",
"118 233 OFFCURVE",
"163 233 CURVE SMOOTH"
);
}
);
width = 327;
}
);
unicode = 116C0;
category = Letter;
},
{
glyphname = uni116C1;
lastChange = "2018-04-03 16:18:36 +0000";
layers = (
{
layerId = UUID0;
paths = (
{
closed = 1;
nodes = (
"306 -12 OFFCURVE",
"357 42 OFFCURVE",
"357 116 CURVE SMOOTH",
"357 237 OFFCURVE",
"247 266 OFFCURVE",
"165 284 CURVE",
"165 360 LINE SMOOTH",
"165 439 OFFCURVE",
"200 510 OFFCURVE",
"302 510 CURVE SMOOTH",
"382 510 OFFCURVE",
"431 465 OFFCURVE",
"431 343 CURVE SMOOTH",
"431 0 LINE",
"516 0 LINE",
"516 349 LINE SMOOTH",
"516 486 OFFCURVE",
"454 585 OFFCURVE",
"301 585 CURVE SMOOTH",
"142 585 OFFCURVE",
"80 467 OFFCURVE",
"80 365 CURVE SMOOTH",
"80 230 LINE SMOOTH",
"80 75 OFFCURVE",
"117 -12 OFFCURVE",
"224 -12 CURVE SMOOTH"
);
},
{
closed = 1;
nodes = (
"190 63 OFFCURVE",
"165 91 OFFCURVE",
"165 204 CURVE",
"208 196 OFFCURVE",
"275 182 OFFCURVE",
"275 120 CURVE SMOOTH",
"275 79 OFFCURVE",
"259 63 OFFCURVE",
"226 63 CURVE SMOOTH"
);
}
);
width = 596;
}
);
unicode = 116C1;
category = Letter;
},
{
glyphname = uni116C2;
lastChange = "2018-04-03 16:18:36 +0000";
layers = (
{
layerId = UUID0;
paths = (
{
closed = 1;
nodes = (
"433 -12 OFFCURVE",
"501 77 OFFCURVE",
"501 169 CURVE SMOOTH",
"501 240 OFFCURVE",
"463 300 OFFCURVE",
"404 324 CURVE",
"445 351 OFFCURVE",
"471 390 OFFCURVE",
"471 441 CURVE SMOOTH",
"471 534 OFFCURVE",
"397 585 OFFCURVE",
"275 585 CURVE SMOOTH",
"239 585 OFFCURVE",
"197 576 OFFCURVE",
"175 566 CURVE",
"195 494 LINE",
"217 502 OFFCURVE",
"244 510 OFFCURVE",
"284 510 CURVE SMOOTH",
"343 510 OFFCURVE",
"386 490 OFFCURVE",
"386 444 CURVE SMOOTH",
"386 393 OFFCURVE",
"355 355 OFFCURVE",
"273 355 CURVE SMOOTH",
"245 355 LINE",
"245 280 LINE",
"272 280 LINE SMOOTH",
"377 280 OFFCURVE",
"416 234 OFFCURVE",
"416 169 CURVE SMOOTH",
"416 102 OFFCURVE",
"365 63 OFFCURVE",
"270 63 CURVE SMOOTH",
"170 63 OFFCURVE",
"113 115 OFFCURVE",
"61 189 CURVE",
"5 146 LINE",
"52 62 OFFCURVE",
"140 -12 OFFCURVE",
"265 -12 CURVE SMOOTH"
);
}
);
width = 541;
}
);
unicode = 116C2;
category = Letter;
},
{
glyphname = uni116C3;
lastChange = "2018-04-03 16:18:36 +0000";
layers = (
{
layerId = UUID0;
paths = (
{
closed = 1;
nodes = (
"363 -73 LINE",
"355 -40 OFFCURVE",
"346 -8 OFFCURVE",
"337 21 CURVE",
"396 55 OFFCURVE",
"428 112 OFFCURVE",
"428 189 CURVE SMOOTH",
"428 253 OFFCURVE",
"390 314 OFFCURVE",
"325 337 CURVE",
"363 360 OFFCURVE",
"386 394 OFFCURVE",
"386 441 CURVE SMOOTH",
"386 534 OFFCURVE",
"322 585 OFFCURVE",
"196 585 CURVE SMOOTH",
"174 585 OFFCURVE",
"112 577 OFFCURVE",
"90 566 CURVE",
"110 494 LINE",
"132 502 OFFCURVE",
"159 510 OFFCURVE",
"199 510 CURVE SMOOTH",
"258 510 OFFCURVE",
"301 490 OFFCURVE",
"301 444 CURVE SMOOTH",
"301 392 OFFCURVE",
"275 370 OFFCURVE",
"185 370 CURVE SMOOTH",
"142 370 LINE",
"142 295 LINE",
"176 295 LINE SMOOTH",
"303 295 OFFCURVE",
"343 246 OFFCURVE",
"343 190 CURVE SMOOTH",
"343 151 OFFCURVE",
"329 123 OFFCURVE",
"307 103 CURVE",
"275 170 OFFCURVE",
"230 211 OFFCURVE",
"151 211 CURVE SMOOTH",
"76 211 OFFCURVE",
"30 160 OFFCURVE",
"30 105 CURVE SMOOTH",
"30 37 OFFCURVE",
"83 -12 OFFCURVE",
"186 -12 CURVE SMOOTH",
"214 -12 OFFCURVE",
"240 -10 OFFCURVE",
"264 -5 CURVE",
"273 -33 OFFCURVE",
"283 -66 OFFCURVE",
"294 -106 CURVE"
);
},
{
closed = 1;
nodes = (
"136 63 OFFCURVE",
"111 79 OFFCURVE",
"111 103 CURVE SMOOTH",
"111 122 OFFCURVE",
"126 138 OFFCURVE",
"152 138 CURVE SMOOTH",
"182 138 OFFCURVE",
"207 124 OFFCURVE",
"234 68 CURVE",
"217 65 OFFCURVE",
"198 63 OFFCURVE",
"180 63 CURVE SMOOTH"
);
}
);
width = 468;
}
);
unicode = 116C3;
category = Letter;
},
{
glyphname = uni116C4;
lastChange = "2018-04-03 16:18:36 +0000";
layers = (
{
layerId = UUID0;
paths = (
{
closed = 1;
nodes = (
"376 -12 OFFCURVE",
"445 54 OFFCURVE",
"445 142 CURVE SMOOTH",
"445 231 OFFCURVE",
"376 279 OFFCURVE",
"304 326 CURVE",
"298 289 LINE",
"417 354 OFFCURVE",
"465 414 OFFCURVE",
"465 501 CURVE SMOOTH",
"465 575 LINE",
"380 575 LINE",
"380 514 LINE SMOOTH",
"380 432 OFFCURVE",
"337 386 OFFCURVE",
"234 341 CURVE",
"289 341 LINE",
"188 386 OFFCURVE",
"145 432 OFFCURVE",
"145 514 CURVE SMOOTH",
"145 575 LINE",
"60 575 LINE",
"60 501 LINE SMOOTH",
"60 414 OFFCURVE",
"108 354 OFFCURVE",
"227 291 CURVE",
"221 327 LINE",
"149 280 OFFCURVE",
"80 231 OFFCURVE",
"80 142 CURVE SMOOTH",
"80 55 OFFCURVE",
"147 -12 OFFCURVE",
"261 -12 CURVE SMOOTH"
);
},
{
closed = 1;
nodes = (
"200 63 OFFCURVE",
"165 92 OFFCURVE",
"165 142 CURVE SMOOTH",
"165 202 OFFCURVE",
"221 243 OFFCURVE",
"285 287 CURVE",
"239 287 LINE",
"303 243 OFFCURVE",
"360 202 OFFCURVE",
"360 142 CURVE SMOOTH",
"360 92 OFFCURVE",
"319 63 OFFCURVE",
"262 63 CURVE SMOOTH"
);
}
);
width = 525;
}
);
unicode = 116C4;
category = Letter;
},
{
glyphname = uni116C5;
lastChange = "2018-04-03 16:18:36 +0000";
layers = (
{
layerId = UUID0;
paths = (
{
closed = 1;
nodes = (
"451 0 LINE",
"451 575 LINE",
"366 575 LINE",
"366 456 LINE",
"356 408 OFFCURVE",
"313 342 OFFCURVE",
"235 342 CURVE SMOOTH",
"166 342 OFFCURVE",
"125 403 OFFCURVE",
"125 526 CURVE SMOOTH",
"125 575 LINE",
"40 575 LINE",
"40 526 LINE SMOOTH",
"40 384 OFFCURVE",
"101 269 OFFCURVE",
"225 269 CURVE SMOOTH",
"295 269 OFFCURVE",
"336 294 OFFCURVE",
"366 322 CURVE",
"366 0 LINE"
);
}
);
width = 531;
}
);
unicode = 116C5;
category = Letter;
},
{
glyphname = uni116C6;
lastChange = "2018-04-03 16:18:36 +0000";
layers = (
{
layerId = UUID0;
paths = (
{
closed = 1;
nodes = (
"456 0 LINE",
"456 59 LINE SMOOTH",
"456 141 OFFCURVE",
"392 205 OFFCURVE",
"327 264 CURVE",
"370 311 OFFCURVE",
"396 375 OFFCURVE",
"396 446 CURVE SMOOTH",
"396 532 OFFCURVE",
"338 585 OFFCURVE",
"252 585 CURVE SMOOTH",
"158 585 OFFCURVE",
"111 521 OFFCURVE",
"111 453 CURVE SMOOTH",
"111 368 OFFCURVE",
"164 309 OFFCURVE",
"222 252 CURVE",
"225 278 LINE",
"196 259 OFFCURVE",
"162 251 OFFCURVE",
"129 251 CURVE SMOOTH",
"94 251 OFFCURVE",
"63 257 OFFCURVE",
"35 269 CURVE",
"5 203 LINE",
"40 185 OFFCURVE",
"78 176 OFFCURVE",
"127 176 CURVE SMOOTH",
"177 176 OFFCURVE",
"225 190 OFFCURVE",
"265 214 CURVE",
"321 164 OFFCURVE",
"371 112 OFFCURVE",
"371 37 CURVE SMOOTH",
"371 0 LINE"
);
},
{
closed = 1;
nodes = (
"228 360 OFFCURVE",
"196 402 OFFCURVE",
"196 451 CURVE SMOOTH",
"196 481 OFFCURVE",
"214 510 OFFCURVE",
"254 510 CURVE SMOOTH",
"292 510 OFFCURVE",
"311 483 OFFCURVE",
"311 448 CURVE SMOOTH",
"311 393 OFFCURVE",
"295 361 OFFCURVE",
"270 318 CURVE"
);
}
);
width = 516;
}
);
unicode = 116C6;
category = Letter;
},
{
glyphname = uni116C7;
lastChange = "2018-04-03 16:18:36 +0000";
layers = (
{
layerId = UUID0;
paths = (
{
closed = 1;
nodes = (
"318 0 LINE",
"318 399 LINE SMOOTH",
"318 550 OFFCURVE",
"242 575 OFFCURVE",
"168 575 CURVE SMOOTH",
"92 575 OFFCURVE",
"30 520 OFFCURVE",
"30 436 CURVE SMOOTH",
"30 353 OFFCURVE",
"70 282 OFFCURVE",
"183 282 CURVE SMOOTH",
"196 282 OFFCURVE",
"215 284 OFFCURVE",
"233 287 CURVE",
"233 0 LINE"
);
},
{
closed = 1;
nodes = (
"135 357 OFFCURVE",
"113 388 OFFCURVE",
"113 435 CURVE SMOOTH",
"113 466 OFFCURVE",
"127 500 OFFCURVE",
"171 500 CURVE SMOOTH",
"214 500 OFFCURVE",
"233 473 OFFCURVE",
"233 402 CURVE SMOOTH",
"233 363 LINE",
"218 358 OFFCURVE",
"205 357 OFFCURVE",
"180 357 CURVE SMOOTH"
);
}
);
width = 398;
}
);
unicode = 116C7;
category = Letter;
},
{
glyphname = uni116C8;
lastChange = "2018-04-03 16:18:36 +0000";
layers = (
{
layerId = UUID0;
paths = (
{
closed = 1;
nodes = (
"350 -12 OFFCURVE",
"414 72 OFFCURVE",
"414 155 CURVE SMOOTH",
"414 261 OFFCURVE",
"337 294 OFFCURVE",
"265 322 CURVE SMOOTH",
"200 347 OFFCURVE",
"138 371 OFFCURVE",
"138 432 CURVE SMOOTH",
"138 469 OFFCURVE",
"169 500 OFFCURVE",
"223 500 CURVE SMOOTH",
"280 500 OFFCURVE",
"310 478 OFFCURVE",
"329 456 CURVE",
"394 496 LINE",
"363 540 OFFCURVE",
"308 575 OFFCURVE",
"229 575 CURVE SMOOTH",
"105 575 OFFCURVE",
"52 496 OFFCURVE",
"52 431 CURVE SMOOTH",
"52 338 OFFCURVE",
"134 296 OFFCURVE",
"207 268 CURVE SMOOTH",
"270 244 OFFCURVE",
"329 220 OFFCURVE",
"329 155 CURVE SMOOTH",
"329 95 OFFCURVE",
"286 63 OFFCURVE",
"220 63 CURVE SMOOTH",
"158 63 OFFCURVE",
"129 88 OFFCURVE",
"100 126 CURVE",
"40 85 LINE",
"59 46 OFFCURVE",
"105 -12 OFFCURVE",
"228 -12 CURVE SMOOTH"
);
}
);
width = 454;
}
);
unicode = 116C8;
category = Letter;
},
{
glyphname = uni116C9;
lastChange = "2018-04-03 16:18:36 +0000";
layers = (
{
layerId = UUID0;
paths = (
{
closed = 1;
nodes = (
"389 -12 OFFCURVE",
"433 73 OFFCURVE",
"433 145 CURVE SMOOTH",
"433 217 OFFCURVE",
"390 279 OFFCURVE",
"297 279 CURVE SMOOTH",
"217 279 OFFCURVE",
"167 227 OFFCURVE",
"167 155 CURVE SMOOTH",
"167 122 OFFCURVE",
"175 97 OFFCURVE",
"196 66 CURVE",
"199 76 LINE",
"158 100 OFFCURVE",
"144 154 OFFCURVE",
"144 231 CURVE SMOOTH",
"144 354 OFFCURVE",
"192 482 OFFCURVE",
"360 524 CURVE",
"340 587 LINE",
"153 558 OFFCURVE",
"60 379 OFFCURVE",
"60 237 CURVE SMOOTH",
"60 101 OFFCURVE",
"120 -12 OFFCURVE",
"272 -12 CURVE SMOOTH"
);
},
{
closed = 1;
nodes = (
"257 78 OFFCURVE",
"242 104 OFFCURVE",
"242 143 CURVE SMOOTH",
"242 180 OFFCURVE",
"264 209 OFFCURVE",
"301 209 CURVE SMOOTH",
"329 209 OFFCURVE",
"357 192 OFFCURVE",
"357 138 CURVE SMOOTH",
"357 101 OFFCURVE",
"337 66 OFFCURVE",
"295 56 CURVE"
);
}
);
width = 473;
}
);
unicode = 116C9;
category = Letter;
},
{
glyphname = Ya.blw;
lastChange = "2018-04-03 16:18:36 +0000";
layers = (
{
layerId = UUID0;
paths = (
{
closed = 1;
nodes = (
"-45 -298 OFFCURVE",
"19 -226 OFFCURVE",
"61 -158 CURVE",
"4 -122 LINE",
"-41 -186 OFFCURVE",
"-86 -233 OFFCURVE",
"-138 -233 CURVE SMOOTH",
"-172 -233 OFFCURVE",
"-191 -215 OFFCURVE",
"-191 -184 CURVE SMOOTH",
"-191 -148 OFFCURVE",
"-162 -125 OFFCURVE",
"-117 -112 CURVE",
"-141 -48 LINE",
"-216 -69 OFFCURVE",
"-266 -119 OFFCURVE",
"-266 -191 CURVE SMOOTH",
"-266 -259 OFFCURVE",
"-212 -298 OFFCURVE",
"-142 -298 CURVE SMOOTH"
);
}
);
width = 0;
}
);
category = Mark;
},
{
glyphname = Ra.blw;
lastChange = "2018-04-03 16:18:36 +0000";
layers = (
{
layerId = UUID0;
paths = (
{
closed = 1;
nodes = (
"-118 -277 OFFCURVE",
"-87 -186 OFFCURVE",
"-83 -123 CURVE",
"-160 -110 LINE",
"-161 -126 OFFCURVE",
"-163 -138 OFFCURVE",
"-167 -152 CURVE",
"-184 -146 OFFCURVE",
"-211 -142 OFFCURVE",
"-238 -142 CURVE SMOOTH",
"-287 -142 OFFCURVE",
"-330 -170 OFFCURVE",
"-330 -210 CURVE SMOOTH",
"-330 -245 OFFCURVE",
"-303 -277 OFFCURVE",
"-238 -277 CURVE SMOOTH"
);
},
{
closed = 1;
nodes = (
"16 -247 LINE",
"-48 -184 OFFCURVE",
"-137 -159 OFFCURVE",
"-164 -155 CURVE",
"-177 -230 LINE",
"-113 -239 OFFCURVE",
"-65 -270 OFFCURVE",
"-23 -304 CURVE"
);
}
);
width = 0;
}
);
category = Mark;
},
{
glyphname = Ha.pst;
lastChange = "2018-04-03 16:18:36 +0000";
layers = (
{
layerId = UUID0;
paths = (
{
closed = 1;
nodes = (
"161 100 LINE",
"161 275 LINE SMOOTH",
"161 441 OFFCURVE",
"99 491 OFFCURVE",
"8 491 CURVE SMOOTH",
"-6 491 OFFCURVE",
"-19 491 OFFCURVE",
"-30 489 CURVE",
"-30 416 LINE",
"-22 417 OFFCURVE",
"-12 418 OFFCURVE",
"-5 418 CURVE SMOOTH",
"43 418 OFFCURVE",
"76 395 OFFCURVE",
"76 275 CURVE SMOOTH",
"76 100 LINE"
);
}
);
width = 0;
}
);
category = Mark;
},
{
glyphname = uni25CC;
lastChange = "2018-04-03 16:18:36 +0000";
layers = (
{
layerId = UUID0;
paths = (
{
closed = 1;
nodes = (
"469 423 OFFCURVE",
"481 435 OFFCURVE",
"481 449 CURVE SMOOTH",
"481 463 OFFCURVE",
"469 475 OFFCURVE",
"455 475 CURVE SMOOTH",
"441 475 OFFCURVE",
"429 463 OFFCURVE",
"429 449 CURVE SMOOTH",
"429 435 OFFCURVE",
"441 423 OFFCURVE",
"455 423 CURVE SMOOTH"
);
},
{
closed = 1;
nodes = (
"153 107 OFFCURVE",
"165 119 OFFCURVE",
"165 133 CURVE SMOOTH",
"165 147 OFFCURVE",
"153 159 OFFCURVE",
"139 159 CURVE SMOOTH",
"125 159 OFFCURVE",
"113 147 OFFCURVE",
"113 133 CURVE SMOOTH",
"113 119 OFFCURVE",
"125 107 OFFCURVE",
"139 107 CURVE SMOOTH"
);
},
{
closed = 1;
nodes = (
"227 60 OFFCURVE",
"239 72 OFFCURVE",
"239 86 CURVE SMOOTH",
"239 100 OFFCURVE",
"227 112 OFFCURVE",
"213 112 CURVE SMOOTH",
"199 112 OFFCURVE",
"187 100 OFFCURVE",
"187 86 CURVE SMOOTH",
"187 72 OFFCURVE",
"199 60 OFFCURVE",
"213 60 CURVE SMOOTH"
);
},
{
closed = 1;
nodes = (
"106 181 OFFCURVE",
"118 193 OFFCURVE",
"118 207 CURVE SMOOTH",
"118 221 OFFCURVE",
"106 233 OFFCURVE",
"92 233 CURVE SMOOTH",
"78 233 OFFCURVE",
"66 221 OFFCURVE",
"66 207 CURVE SMOOTH",
"66 193 OFFCURVE",
"78 181 OFFCURVE",
"92 181 CURVE SMOOTH"
);
},
{
closed = 1;
nodes = (
"311 42 OFFCURVE",
"323 54 OFFCURVE",
"323 68 CURVE SMOOTH",
"323 82 OFFCURVE",
"311 94 OFFCURVE",
"297 94 CURVE SMOOTH",
"283 94 OFFCURVE",
"271 82 OFFCURVE",
"271 68 CURVE SMOOTH",
"271 54 OFFCURVE",
"283 42 OFFCURVE",
"297 42 CURVE SMOOTH"
);
},
{
closed = 1;
nodes = (
"88 265 OFFCURVE",
"100 277 OFFCURVE",
"100 291 CURVE SMOOTH",
"100 305 OFFCURVE",
"88 317 OFFCURVE",
"74 317 CURVE SMOOTH",
"60 317 OFFCURVE",
"48 305 OFFCURVE",
"48 291 CURVE SMOOTH",
"48 277 OFFCURVE",
"60 265 OFFCURVE",
"74 265 CURVE SMOOTH"
);
},
{
closed = 1;
nodes = (
"395 60 OFFCURVE",
"407 72 OFFCURVE",
"407 86 CURVE SMOOTH",
"407 100 OFFCURVE",
"395 112 OFFCURVE",
"381 112 CURVE SMOOTH",
"367 112 OFFCURVE",
"355 100 OFFCURVE",
"355 86 CURVE SMOOTH",
"355 72 OFFCURVE",
"367 60 OFFCURVE",
"381 60 CURVE SMOOTH"
);
},
{
closed = 1;
nodes = (
"106 349 OFFCURVE",
"118 361 OFFCURVE",
"118 375 CURVE SMOOTH",
"118 389 OFFCURVE",
"106 401 OFFCURVE",
"92 401 CURVE SMOOTH",
"78 401 OFFCURVE",
"66 389 OFFCURVE",
"66 375 CURVE SMOOTH",
"66 361 OFFCURVE",
"78 349 OFFCURVE",
"92 349 CURVE SMOOTH"
);
},
{
closed = 1;
nodes = (
"153 423 OFFCURVE",
"165 435 OFFCURVE",
"165 449 CURVE SMOOTH",
"165 463 OFFCURVE",
"153 475 OFFCURVE",
"139 475 CURVE SMOOTH",
"125 475 OFFCURVE",
"113 463 OFFCURVE",
"113 449 CURVE SMOOTH",
"113 435 OFFCURVE",
"125 423 OFFCURVE",
"139 423 CURVE SMOOTH"
);
},
{
closed = 1;
nodes = (
"469 107 OFFCURVE",
"481 119 OFFCURVE",
"481 133 CURVE SMOOTH",
"481 147 OFFCURVE",
"469 159 OFFCURVE",
"455 159 CURVE SMOOTH",
"441 159 OFFCURVE",
"429 147 OFFCURVE",
"429 133 CURVE SMOOTH",
"429 119 OFFCURVE",
"441 107 OFFCURVE",
"455 107 CURVE SMOOTH"
);
},
{
closed = 1;
nodes = (
"227 470 OFFCURVE",
"239 482 OFFCURVE",
"239 496 CURVE SMOOTH",
"239 510 OFFCURVE",
"227 522 OFFCURVE",
"213 522 CURVE SMOOTH",
"199 522 OFFCURVE",
"187 510 OFFCURVE",
"187 496 CURVE SMOOTH",
"187 482 OFFCURVE",
"199 470 OFFCURVE",
"213 470 CURVE SMOOTH"
);
},
{
closed = 1;
nodes = (
"516 181 OFFCURVE",
"528 193 OFFCURVE",
"528 207 CURVE SMOOTH",
"528 221 OFFCURVE",
"516 233 OFFCURVE",
"502 233 CURVE SMOOTH",
"488 233 OFFCURVE",
"476 221 OFFCURVE",
"476 207 CURVE SMOOTH",
"476 193 OFFCURVE",
"488 181 OFFCURVE",
"502 181 CURVE SMOOTH"
);
},
{
closed = 1;
nodes = (
"311 488 OFFCURVE",
"323 500 OFFCURVE",
"323 514 CURVE SMOOTH",
"323 528 OFFCURVE",
"311 540 OFFCURVE",
"297 540 CURVE SMOOTH",
"283 540 OFFCURVE",
"271 528 OFFCURVE",
"271 514 CURVE SMOOTH",
"271 500 OFFCURVE",
"283 488 OFFCURVE",
"297 488 CURVE SMOOTH"
);
},
{
closed = 1;
nodes = (
"534 265 OFFCURVE",
"546 277 OFFCURVE",
"546 291 CURVE SMOOTH",
"546 305 OFFCURVE",
"534 317 OFFCURVE",
"520 317 CURVE SMOOTH",
"506 317 OFFCURVE",
"494 305 OFFCURVE",
"494 291 CURVE SMOOTH",
"494 277 OFFCURVE",
"506 265 OFFCURVE",
"520 265 CURVE SMOOTH"
);
},
{
closed = 1;
nodes = (
"395 470 OFFCURVE",
"407 482 OFFCURVE",
"407 496 CURVE SMOOTH",
"407 510 OFFCURVE",
"395 522 OFFCURVE",
"381 522 CURVE SMOOTH",
"367 522 OFFCURVE",
"355 510 OFFCURVE",
"355 496 CURVE SMOOTH",
"355 482 OFFCURVE",
"367 470 OFFCURVE",
"381 470 CURVE SMOOTH"
);
},
{
closed = 1;
nodes = (
"516 349 OFFCURVE",
"528 361 OFFCURVE",
"528 375 CURVE SMOOTH",
"528 389 OFFCURVE",
"516 401 OFFCURVE",
"502 401 CURVE SMOOTH",
"488 401 OFFCURVE",
"476 389 OFFCURVE",
"476 375 CURVE SMOOTH",
"476 361 OFFCURVE",
"488 349 OFFCURVE",
"502 349 CURVE SMOOTH"
);
}
);
width = 594;
}
);
unicode = 25CC;
category = Letter;
},
{
glyphname = uniA830;
lastChange = "2018-04-03 16:18:36 +0000";
layers = (
{
layerId = UUID0;
paths = (
{
closed = 1;
nodes = (
"159 0 LINE",
"159 622 LINE",
"78 622 LINE",
"78 0 LINE"
);
}
);
width = 237;
}
);
unicode = A830;
category = Letter;
},
{
glyphname = uniA831;
lastChange = "2018-04-03 16:18:36 +0000";
layers = (
{
layerId = UUID0;
paths = (
{
closed = 1;
nodes = (
"359 0 LINE",
"359 622 LINE",
"278 622 LINE",
"278 0 LINE"
);
},
{
closed = 1;
nodes = (
"159 0 LINE",
"159 622 LINE",
"78 622 LINE",
"78 0 LINE"
);
}
);
width = 437;
}
);
unicode = A831;
category = Letter;
},
{
glyphname = uniA832;
lastChange = "2018-04-03 16:18:36 +0000";
layers = (
{
layerId = UUID0;
paths = (
{
closed = 1;
nodes = (
"559 0 LINE",
"559 622 LINE",
"478 622 LINE",
"478 0 LINE"
);
},
{
closed = 1;
nodes = (
"159 0 LINE",
"159 622 LINE",
"78 622 LINE",
"78 0 LINE"
);
},
{
closed = 1;
nodes = (
"359 0 LINE",
"359 622 LINE",
"278 622 LINE",
"278 0 LINE"
);
}
);
width = 637;
}
);
unicode = A832;
category = Letter;
},
{
glyphname = uniA833;
lastChange = "2018-04-03 16:18:36 +0000";
layers = (
{
layerId = UUID0;
paths = (
{
closed = 1;
nodes = (
"583 542 LINE",
"563 622 LINE",
"40 491 LINE",
"60 412 LINE"
);
}
);
width = 622;
}
);
unicode = A833;
category = Letter;
},
{
glyphname = uniA834;
lastChange = "2018-04-03 16:18:36 +0000";
layers = (
{
layerId = UUID0;
paths = (
{
closed = 1;
nodes = (
"583 542 LINE",
"563 622 LINE",
"40 491 LINE",
"60 412 LINE"
);
},
{
closed = 1;
nodes = (
"583 345 LINE",
"563 425 LINE",
"40 294 LINE",
"60 215 LINE"
);
}
);
width = 622;
}
);
unicode = A834;
category = Letter;
},
{
glyphname = uniA835;
lastChange = "2018-04-03 16:18:36 +0000";
layers = (
{
layerId = UUID0;
paths = (
{
closed = 1;
nodes = (
"583 542 LINE",
"563 622 LINE",
"40 491 LINE",
"60 412 LINE"
);
},
{
closed = 1;
nodes = (
"583 148 LINE",
"563 228 LINE",
"40 97 LINE",
"60 18 LINE"
);
},
{
closed = 1;
nodes = (
"583 345 LINE",
"563 425 LINE",
"40 294 LINE",
"60 215 LINE"
);
}
);
width = 622;
}
);
unicode = A835;
category = Letter;
},
{
glyphname = uniA836;
lastChange = "2018-04-03 16:18:36 +0000";
layers = (
{
layerId = UUID0;
paths = (
{
closed = 1;
nodes = (
"331 167 OFFCURVE",
"393 235 OFFCURVE",
"393 321 CURVE SMOOTH",
"393 407 OFFCURVE",
"329 473 OFFCURVE",
"230 473 CURVE SMOOTH",
"127 473 OFFCURVE",
"67 403 OFFCURVE",
"67 321 CURVE SMOOTH",
"67 230 OFFCURVE",
"134 167 OFFCURVE",
"230 167 CURVE SMOOTH"
);
},
{
closed = 1;
nodes = (
"175 237 OFFCURVE",
"143 271 OFFCURVE",
"143 321 CURVE SMOOTH",
"143 367 OFFCURVE",
"173 404 OFFCURVE",
"230 404 CURVE SMOOTH",
"283 404 OFFCURVE",
"317 369 OFFCURVE",
"317 321 CURVE SMOOTH",
"317 271 OFFCURVE",
"286 237 OFFCURVE",
"230 237 CURVE SMOOTH"
);
}
);
width = 460;
}
);
unicode = A836;
category = Letter;
},
{
glyphname = uniA837;
lastChange = "2018-04-03 16:18:36 +0000";
layers = (
{
layerId = UUID0;
paths = (
{
closed = 1;
nodes = (
"321 86 OFFCURVE",
"383 154 OFFCURVE",
"383 240 CURVE SMOOTH",
"383 330 OFFCURVE",
"315 391 OFFCURVE",
"222 391 CURVE SMOOTH",
"200 391 OFFCURVE",
"177 387 OFFCURVE",
"155 381 CURVE",
"150 315 LINE",
"221 356 OFFCURVE",
"328 430 OFFCURVE",
"407 492 CURVE SMOOTH",
"499 565 LINE",
"453 623 LINE",
"147 386 LINE SMOOTH",
"76 331 OFFCURVE",
"57 296 OFFCURVE",
"57 240 CURVE SMOOTH",
"57 150 OFFCURVE",
"124 86 OFFCURVE",
"221 86 CURVE SMOOTH"
);
},
{
closed = 1;
nodes = (
"165 156 OFFCURVE",
"133 190 OFFCURVE",
"133 240 CURVE SMOOTH",
"133 286 OFFCURVE",
"164 323 OFFCURVE",
"220 323 CURVE SMOOTH",
"273 323 OFFCURVE",
"307 288 OFFCURVE",
"307 240 CURVE SMOOTH",
"307 191 OFFCURVE",
"276 156 OFFCURVE",
"220 156 CURVE SMOOTH"
);
}
);
width = 509;
}
);
unicode = A837;
category = Letter;
},
{
glyphname = uniA838;
lastChange = "2018-04-03 16:18:36 +0000";
layers = (
{
layerId = UUID0;
paths = (
{
closed = 1;
nodes = (
"199 -188 OFFCURVE",
"246 -16 OFFCURVE",
"246 177 CURVE SMOOTH",
"246 322 OFFCURVE",
"217 509 OFFCURVE",
"182 633 CURVE",
"101 615 LINE",
"131 505 OFFCURVE",
"164 335 OFFCURVE",
"164 180 CURVE SMOOTH",
"164 -10 OFFCURVE",
"114 -115 OFFCURVE",
"-63 -115 CURVE SMOOTH",
"-89 -115 OFFCURVE",
"-119 -111 OFFCURVE",
"-151 -104 CURVE",
"-157 -177 LINE",
"-132 -182 OFFCURVE",
"-91 -188 OFFCURVE",
"-61 -188 CURVE SMOOTH"
);
}
);
width = 307;
}
);
unicode = A838;
category = Letter;
},
{
glyphname = uniA839;
lastChange = "2018-04-03 16:18:36 +0000";
layers = (
{
layerId = UUID0;
paths = (
{
closed = 1;
nodes = (
"-157 -237 LINE",
"-145 -238 OFFCURVE",
"-119 -240 OFFCURVE",
"-100 -240 CURVE SMOOTH",
"199 -240 OFFCURVE",
"257 -84 OFFCURVE",
"257 30 CURVE SMOOTH",
"257 200 OFFCURVE",
"146 315 OFFCURVE",
"146 421 CURVE SMOOTH",
"146 498 OFFCURVE",
"219 536 OFFCURVE",
"337 558 CURVE",
"313 633 LINE",
"161 602 OFFCURVE",
"65 538 OFFCURVE",
"65 421 CURVE SMOOTH",
"65 284 OFFCURVE",
"176 181 OFFCURVE",
"176 29 CURVE SMOOTH",
"176 -73 OFFCURVE",
"113 -165 OFFCURVE",
"-104 -165 CURVE SMOOTH",
"-123 -165 OFFCURVE",
"-142 -164 OFFCURVE",
"-155 -162 CURVE"
);
}
);
width = 337;
}
);
unicode = A839;
category = Letter;
},
{
glyphname = I_anusvara;
lastChange = "2018-04-03 16:18:36 +0000";
layers = (
{
layerId = UUID0;
paths = (
{
closed = 1;
nodes = (
"165 -120 LINE",
"165 638 LINE SMOOTH",
"165 760 OFFCURVE",
"224 805 OFFCURVE",
"304 805 CURVE SMOOTH",
"406 805 OFFCURVE",
"451 734 OFFCURVE",
"451 655 CURVE SMOOTH",
"451 567 LINE",
"536 567 LINE",
"536 660 LINE SMOOTH",
"536 762 OFFCURVE",
"464 880 OFFCURVE",
"301 880 CURVE SMOOTH",
"165 880 OFFCURVE",
"80 801 OFFCURVE",
"80 644 CURVE SMOOTH",
"80 -120 LINE"
);
},
{
closed = 1;
nodes = (
"680 714 OFFCURVE",
"710 742 OFFCURVE",
"710 779 CURVE SMOOTH",
"710 814 OFFCURVE",
"680 844 OFFCURVE",
"645 844 CURVE SMOOTH",
"609 844 OFFCURVE",
"580 814 OFFCURVE",
"580 779 CURVE SMOOTH",
"580 742 OFFCURVE",
"609 714 OFFCURVE",
"645 714 CURVE SMOOTH"
);
}
);
width = 304;
}
);
category = Letter;
},
{
glyphname = Tra;
lastChange = "2018-04-03 16:18:36 +0000";
layers = (
{
layerId = UUID0;
paths = (
{
closed = 1;
nodes = (
"374 -12 OFFCURVE",
"441 80 OFFCURVE",
"441 184 CURVE SMOOTH",
"441 254 OFFCURVE",
"402 309 OFFCURVE",
"341 341 CURVE",
"386 369 OFFCURVE",
"416 412 OFFCURVE",
"416 480 CURVE SMOOTH",
"416 575 OFFCURVE",
"331 637 OFFCURVE",
"195 637 CURVE SMOOTH",
"181 637 OFFCURVE",
"139 636 OFFCURVE",
"93 630 CURVE",
"100 554 LINE",
"123 558 OFFCURVE",
"150 562 OFFCURVE",
"180 562 CURVE SMOOTH",
"266 562 OFFCURVE",
"331 537 OFFCURVE",
"331 476 CURVE SMOOTH",
"331 402 OFFCURVE",
"276 373 OFFCURVE",
"190 373 CURVE SMOOTH",
"143 373 LINE",
"143 298 LINE",
"205 298 LINE SMOOTH",
"310 298 OFFCURVE",
"356 250 OFFCURVE",
"356 185 CURVE SMOOTH",
"356 129 OFFCURVE",
"322 79 OFFCURVE",
"248 68 CURVE",
"198 103 OFFCURVE",
"150 129 OFFCURVE",
"97 129 CURVE SMOOTH",
"57 129 OFFCURVE",
"30 103 OFFCURVE",
"30 67 CURVE SMOOTH",
"30 10 OFFCURVE",
"78 -12 OFFCURVE",
"165 -12 CURVE SMOOTH"
);
},
{
closed = 1;
nodes = (
"466 -168 LINE",
"422 -72 OFFCURVE",
"338 17 OFFCURVE",
"252 65 CURVE",
"212 3 LINE",
"307 -51 OFFCURVE",
"363 -129 OFFCURVE",
"410 -208 CURVE"
);
}
);
width = 510;
}
);
category = Letter;
},
{
glyphname = uni116AE.alt;
lastChange = "2018-04-03 16:18:36 +0000";
layers = (
{
layerId = UUID0;
paths = (
{
closed = 1;
nodes = (
"165 -120 LINE",
"165 638 LINE SMOOTH",
"165 760 OFFCURVE",
"224 805 OFFCURVE",
"304 805 CURVE SMOOTH",
"406 805 OFFCURVE",
"451 734 OFFCURVE",
"451 655 CURVE SMOOTH",
"451 582 LINE",
"536 582 LINE",
"536 660 LINE SMOOTH",
"536 762 OFFCURVE",
"464 880 OFFCURVE",
"301 880 CURVE SMOOTH",
"165 880 OFFCURVE",
"80 801 OFFCURVE",
"80 644 CURVE SMOOTH",
"80 -120 LINE"
);
}
);
width = 304;
}
);
},
{
glyphname = I_anusvara.alt;
lastChange = "2018-04-03 16:18:36 +0000";
layers = (
{
layerId = UUID0;
paths = (
{
closed = 1;
nodes = (
"165 -120 LINE",
"165 638 LINE SMOOTH",
"165 760 OFFCURVE",
"224 805 OFFCURVE",
"304 805 CURVE SMOOTH",
"406 805 OFFCURVE",
"451 734 OFFCURVE",
"451 655 CURVE SMOOTH",
"451 582 LINE",
"536 582 LINE",
"536 660 LINE SMOOTH",
"536 762 OFFCURVE",
"464 880 OFFCURVE",
"301 880 CURVE SMOOTH",
"165 880 OFFCURVE",
"80 801 OFFCURVE",
"80 644 CURVE SMOOTH",
"80 -120 LINE"
);
},
{
closed = 1;
nodes = (
"680 714 OFFCURVE",
"710 742 OFFCURVE",
"710 779 CURVE SMOOTH",
"710 814 OFFCURVE",
"680 844 OFFCURVE",
"645 844 CURVE SMOOTH",
"609 844 OFFCURVE",
"580 814 OFFCURVE",
"580 779 CURVE SMOOTH",
"580 742 OFFCURVE",
"609 714 OFFCURVE",
"645 714 CURVE SMOOTH"
);
}
);
width = 304;
}
);
},
{
glyphname = uni116B6.ns;
lastChange = "2018-04-03 16:18:36 +0000";
layers = (
{
layerId = UUID0;
paths = (
{
closed = 1;
nodes = (
"0 718 LINE",
"-284 930 LINE",
"-324 876 LINE",
"-40 665 LINE"
);
}
